<svg version="1.2" xmlns="http://www.w3.org/2000/svg" viewBox="0 0 706 398" width="706" height="398">
	<title>background6-svg</title>
	<style>
		.s0 { fill: #182047 } 
		.s1 { fill: #242e6b } 
	</style>
	<g id="Layer">
		<g id="Layer">
			<path id="Layer" class="s0" d="m395.3 204.6c-5.2-28.2-4.8-57.1 1.3-85.1 6.6-30.1 19.8-58.6 38.4-83.2 10.9-14.3 23.5-27.2 37.5-38.4 1.5-1.3 3.6 1 2.1 2.3-47.7 38.1-77.1 95.4-80.5 156.3-0.9 15.9-0.1 32.1 2.5 47.9 0.2 0.8-1.1 1.1-1.3 0.2z"/>
		</g>
		<g id="Layer">
			<path id="Layer" class="s0" d="m398.4 262.4c0 0-28.1-32.5-2.4-60.3 27 24.9 2.4 60.3 2.4 60.3z"/>
		</g>
		<g id="Layer">
			<path id="Layer" class="s0" d="m344.9 224.2c0 0 11.6-41.3 48.9-35.3-5.8 36.3-48.9 35.3-48.9 35.3z"/>
		</g>
		<g id="Layer">
			<path id="Layer" class="s0" d="m343.6 193.5c0 0 11.5-41.4 48.9-35.3-5.9 36.2-48.9 35.3-48.9 35.3z"/>
		</g>
		<g id="Layer">
			<path id="Layer" class="s0" d="m347.1 160.9c0 0 11.6-41.3 48.9-35.3-5.8 36.2-48.9 35.3-48.9 35.3z"/>
		</g>
		<g id="Layer">
			<path id="Layer" class="s0" d="m352 123.9c0 0 16.1-39.8 52.5-29.7-9.8 35.4-52.5 29.7-52.5 29.7z"/>
		</g>
		<g id="Layer">
			<path id="Layer" class="s0" d="m363.4 83.2c0 0 21.9-36.9 56.4-21.4-15 33.5-56.4 21.4-56.4 21.4z"/>
		</g>
		<g id="Layer">
			<path id="Layer" class="s0" d="m380.9 42.7c0 0 28.4-32.2 59.4-10.5-21 30.1-59.4 10.5-59.4 10.5z"/>
		</g>
		<g id="Layer">
			<path id="Layer" class="s0" d="m448.1 216.4c0 0-18.1-38.9-54-26.9 11.6 34.8 54 26.9 54 26.9z"/>
		</g>
		<g id="Layer">
			<path id="Layer" class="s0" d="m446.8 185.4c0 0-18.1-38.9-54-26.9 11.7 34.8 54 26.9 54 26.9z"/>
		</g>
		<g id="Layer">
			<path id="Layer" class="s0" d="m446.5 158.7c0 0-14.2-40.5-51-32 8.2 35.8 51 32 51 32z"/>
		</g>
		<g id="Layer">
			<path id="Layer" class="s0" d="m454 131.1c0 0-11.2-41.4-48.6-35.7 5.5 36.3 48.6 35.7 48.6 35.7z"/>
		</g>
		<g id="Layer">
			<path id="Layer" class="s0" d="m463.1 103.9c0 0-5.9-42.5-43.7-41.6 0.9 36.7 43.7 41.6 43.7 41.6z"/>
		</g>
		<g id="Layer">
			<path id="Layer" class="s0" d="m475.6 80.8c0 0 0.5-42.9-37-47.6-4.6 36.4 37 47.6 37 47.6z"/>
		</g>
		<g id="Layer">
			<path id="Layer" class="s1" d="m652.4 218.5c-13.3-25.3-21.5-53.1-24-81.7-2.6-30.7 1.6-61.8 12.1-90.8 6.1-16.9 14.3-32.9 24.4-47.8 1.1-1.7 3.8-0.1 2.7 1.6-34.3 50.5-45.4 114-30.6 173.1 3.8 15.5 9.4 30.7 16.6 45 0.4 0.8-0.8 1.4-1.2 0.6z"/>
		</g>
		<g id="Layer">
			<path id="Layer" class="s1" d="m672.5 272.8c0 0-36.4-22.8-20.2-56.9 33.2 15.8 20.2 56.9 20.2 56.9z"/>
		</g>
		<g id="Layer">
			<path id="Layer" class="s1" d="m610.1 252.2c0 0-1.2-42.9 36.2-48.2 5.2 36.3-36.2 48.2-36.2 48.2z"/>
		</g>
		<g id="Layer">
			<path id="Layer" class="s1" d="m599.7 223.2c0 0-1.2-42.9 36.2-48.2 5.2 36.3-36.2 48.2-36.2 48.2z"/>
		</g>
		<g id="Layer">
			<path id="Layer" class="s1" d="m593.5 191c0 0-1.3-42.9 36.2-48.2 5.2 36.4-36.2 48.2-36.2 48.2z"/>
		</g>
		<g id="Layer">
			<path id="Layer" class="s1" d="m587.1 154.2c0 0 3.6-42.8 41.4-43.8 1.1 36.7-41.4 43.8-41.4 43.8z"/>
		</g>
		<g id="Layer">
			<path id="Layer" class="s1" d="m586 112c0 0 10-41.8 47.5-37.2-4.4 36.5-47.5 37.2-47.5 37.2z"/>
		</g>
		<g id="Layer">
			<path id="Layer" class="s1" d="m590.7 68.2c0 0 17.6-39.2 53.6-27.7-11.2 35-53.6 27.7-53.6 27.7z"/>
		</g>
		<g id="Layer">
			<path id="Layer" class="s1" d="m706.3 214.1c0 0-28.8-31.8-59.5-9.7 21.4 29.8 59.5 9.7 59.5 9.7z"/>
		</g>
		<g id="Layer">
			<path id="Layer" class="s1" d="m695.9 184.9c0 0-28.8-31.8-59.5-9.7 21.4 29.8 59.5 9.7 59.5 9.7z"/>
		</g>
		<g id="Layer">
			<path id="Layer" class="s1" d="m687.8 159.5c0 0-25.6-34.4-58.3-15.5 18.4 31.8 58.3 15.5 58.3 15.5z"/>
		</g>
		<g id="Layer">
			<path id="Layer" class="s1" d="m686.7 131c0 0-23-36.3-57-19.8 16 33.1 57 19.8 57 19.8z"/>
		</g>
		<g id="Layer">
			<path id="Layer" class="s1" d="m687.3 102.3c0 0-18.2-38.9-54-26.9 11.7 34.8 54 26.9 54 26.9z"/>
		</g>
		<g id="Layer">
			<path id="Layer" class="s1" d="m692.4 76.5c0 0-12.2-41.2-49.4-34.5 6.4 36.1 49.4 34.5 49.4 34.5z"/>
		</g>
		<g id="Layer">
			<path id="Layer" class="s0" d="m135.8 187.2c-25.5-13-48.2-30.9-66.7-52.9-19.9-23.5-34.4-51.4-42.6-81.1-4.7-17.3-7.3-35.2-7.7-53.1 0-2 3.1-2.3 3.2-0.3 1.2 61 28.7 119.3 74.9 159.1 12.1 10.4 25.4 19.6 39.5 27.1 0.8 0.4 0.2 1.6-0.6 1.2z"/>
		</g>
		<g id="Layer">
			<path id="Layer" class="s0" d="m183.5 219.9c0 0-42.9 2.5-49.3-34.8 36.2-6.2 49.3 34.8 49.3 34.8z"/>
		</g>
		<g id="Layer">
			<path id="Layer" class="s0" d="m120.7 239.1c0 0-25.8-34.3 1.7-60.3 25.2 26.7-1.7 60.3-1.7 60.3z"/>
		</g>
		<g id="Layer">
			<path id="Layer" class="s0" d="m95.5 221.4c0 0-25.8-34.3 1.7-60.3 25.2 26.8-1.7 60.3-1.7 60.3z"/>
		</g>
		<g id="Layer">
			<path id="Layer" class="s0" d="m71.8 198.8c0 0-25.8-34.4 1.8-60.3 25.2 26.7-1.8 60.3-1.8 60.3z"/>
		</g>
		<g id="Layer">
			<path id="Layer" class="s0" d="m45.4 172.3c0 0-21.8-37 8.5-59.7 22 29.4-8.5 59.7-8.5 59.7z"/>
		</g>
		<g id="Layer">
			<path id="Layer" class="s0" d="m20.1 138.5c0 0-15.9-39.8 17.4-57.7 17.4 32.3-17.4 57.7-17.4 57.7z"/>
		</g>
		<g id="Layer">
			<path id="Layer" class="s0" d="m-1.4 100c0 0-8.2-42.1 27.9-53.5 11 35-27.9 53.5-27.9 53.5z"/>
		</g>
		<g id="Layer">
			<path id="Layer" class="s0" d="m177.3 152.5c0 0-41.9-9.3-54.2 26.4 34.7 12 54.2-26.4 54.2-26.4z"/>
		</g>
		<g id="Layer">
			<path id="Layer" class="s0" d="m151.9 134.6c0 0-41.9-9.3-54.2 26.5 34.7 11.9 54.2-26.5 54.2-26.5z"/>
		</g>
		<g id="Layer">
			<path id="Layer" class="s0" d="m130.6 118.6c0 0-40.7-13.4-56.5 21 33.4 15.3 56.5-21 56.5-21z"/>
		</g>
		<g id="Layer">
			<path id="Layer" class="s0" d="m113.3 95.9c0 0-39.7-16.3-58 16.8 32.2 17.7 58-16.8 58-16.8z"/>
		</g>
		<g id="Layer">
			<path id="Layer" class="s0" d="m97.2 72.1c0 0-37.3-21.3-59.6 9.3 29.6 21.6 59.6-9.3 59.6-9.3z"/>
		</g>
		<g id="Layer">
			<path id="Layer" class="s0" d="m86.5 48.1c0 0-33.7-26.5-60.3 0.3 26.1 25.9 60.3-0.3 60.3-0.3z"/>
		</g>
	</g>
</svg>