<svg version="1.2" xmlns="http://www.w3.org/2000/svg" viewBox="0 0 743 476" width="743" height="476">
	<title>background5-svg</title>
	<defs>
		<clipPath clipPathUnits="userSpaceOnUse" id="cp1">
			<path d="m743 476h-742.98v-475.08h742.98z"/>
		</clipPath>
		<clipPath clipPathUnits="userSpaceOnUse" id="cp2">
			<path d="m746 471h-749.24v-470.25h749.24z"/>
		</clipPath>
		<linearGradient id="g1" x1="513.6" y1="370.1" x2="513.6" y2="1.1" gradientUnits="userSpaceOnUse">
			<stop offset="0" stop-color="#35447a"/>
			<stop offset="1" stop-color="#4961d6"/>
		</linearGradient>
		<linearGradient id="g2" x1="175.3" y1="428" x2="54.6" y2="79.3" gradientUnits="userSpaceOnUse">
			<stop offset="0" stop-color="#35447a"/>
			<stop offset="1" stop-color="#4961d6"/>
		</linearGradient>
	</defs>
	<style>
		.s0 { fill: none } 
		.s1 { fill: #131a35 } 
		.s2 { fill: url(#g1) } 
		.s3 { fill: #5476ef } 
		.s4 { fill: url(#g2) } 
	</style>
	<g id="Artboard1">
		<path id="Layer" class="s0" d="m743 476h-743v-475.1h743z"/>
		<g id="Clip-Path" clip-path="url(#cp1)">
			<g id="Layer">
				<g id="Layer">
					<g id="Clip-Path" clip-path="url(#cp2)">
						<g id="Layer">
							<g id="Layer">
								<path id="Layer" class="s1" d="m382.7-5.7c14.7 16 23.8 33.1 28.8 50.5-0.7-0.6-1.4-1-2.1-1.6-9.6-7.5-18-8.8-17.7-8.5 12 11.3 16.6 16.4 23.6 27.8q1 7 1.2 13.9c-1.4-1.2-2.7-2.5-4-3.7-2.8-2.6-5.8-5.1-9.6-6.3-0.2 0-0.5 0.3-0.4 0.5 3.3 8.8 9.1 16.5 13.8 24.6-1.8 28.9-11.5 56.1-21.7 77.4-1.8-3.3-4.2-6.4-7.1-8.6-0.3-0.2-0.7-0.1-0.7 0.3 0.3 6.5 1.3 13 1.8 19.6q0 0.3 0 0.6c-10.5 19.7-20 32.1-20.3 32.5-1.9-37.9-12.3-71.6-19-97.3 3.7-9.8 9.1-19 12.7-28.9 0.1-0.2-0.1-0.5-0.4-0.5-3.7 0.6-7 2.7-9.9 5-2.4 1.9-4.5 3.9-6.6 6q-0.7-3.4-1.1-6.5c-3.3-26.6-1.8-59.4 38.7-96.8z"/>
							</g>
							<g id="Layer">
								<path id="Layer" class="s1" d="m678.7 54.8q-0.1 1.9-0.4 4.1c-1.4-1.2-2.9-2.4-4.4-3.5-1.9-1.3-4-2.5-6.4-2.8-0.2 0-0.3 0.2-0.2 0.4 2.6 6 6.3 11.6 9 17.6-3.2 16.4-8.5 37.9-8.2 61.8v-0.1c-0.2-0.2-6.7-7.6-14-19.5q0-0.2 0-0.4c0.1-4.2 0.4-8.3 0.3-12.4 0-0.2-0.2-0.3-0.4-0.2-1.7 1.6-3.1 3.6-4.1 5.7-7.2-13-14.3-29.7-16.5-47.7 2.6-5.3 5.9-10.3 7.7-16 0.1-0.1-0.1-0.3-0.3-0.3-2.3 0.9-4.1 2.6-5.8 4.3-0.8 0.8-1.5 1.7-2.3 2.5q-0.2-4.3 0.2-8.8c3.9-7.4 6.6-10.7 13.7-18.3 0.2-0.2-5 1-10.7 6-0.4 0.4-0.9 0.7-1.3 1.1 2.5-11.1 7.6-22.2 16.2-32.8 26.8 21.9 29 42.5 27.9 59.3z"/>
							</g>
							<g id="Layer">
								<path id="Layer" class="s1" d="m134.7-8.8c6.5 12 9.5 23.9 9.9 35.2-0.3-0.4-0.7-0.8-1-1.3-4.7-6-9.6-8-9.5-7.8 5.6 8.7 7.6 12.5 10.2 20.5q-0.5 4.4-1.4 8.7c-0.6-1-1.2-2-1.8-2.9-1.4-2-2.8-4-5-5.3-0.1-0.1-0.3 0.1-0.3 0.3 0.7 5.8 3.1 11.4 4.7 17.1-5.4 17.3-15.4 32.4-24.9 43.9-0.6-2.3-1.6-4.5-3-6.4-0.1-0.1-0.4-0.1-0.5 0.1-0.8 4.1-1.2 8.2-1.9 12.3q0 0.2 0 0.4c-9.4 10.4-17.1 16.5-17.3 16.7 4.5-23.4 3.3-45.5 3.1-62.2 3.7-5.5 8.4-10.2 12.1-15.7 0-0.2-0.1-0.4-0.2-0.4-2.4-0.2-4.7 0.6-6.8 1.6-1.7 0.8-3.4 1.7-5 2.6q0.2-2.2 0.4-4.1c2-16.7 7.8-36.5 38.2-53.3z"/>
							</g>
							<g id="Layer">
								<path id="Layer" class="s2" d="m578.9 312.6q-21.6-21.6-38.7-44.3c-0.8-13.3 0-27.3-4.8-39.9 0-0.3-0.4-0.3-0.8-0.3-5.5 3.7-8.8 10.3-11.4 16.6-34-51.3-54.3-104.1-65.3-147.3 4-14 11.4-27.6 14-42 0-0.4-0.4-0.8-0.8-0.8-8.1 1.9-14.3 7.8-19.9 14.4-0.7-2.9-1.1-5.5-1.5-8.1 4.5-5.9 10-11.1 13-18.1 0.3-0.3 0-0.7-0.4-0.7-4.8-1.8-10.7-2.6-15.9-2.6-1.4-14-2.2-25.1-1.8-32.1 1.1-2.2 2.2-4.4 2.9-6.3h138.4c-3.3 6.7-6.6 13.7-9.2 20.7-11.5-5.9-23.6-11.4-36.5-11.8 0 0-0.4 0.4-0.4 0.7 1.8 5.2 6.6 8.5 10.3 12.6 4.4 5.1 8.5 11 11.5 17.3 2.2 4.1 3.6 8.1 5.1 12.6-7 28.7-9.6 59-9.9 88.9-2.6-2.2-5.6-4.1-8.2-5.5-3.3-1.9-7.3-3.7-11-3l-0.4 0.4c0.7 10.7 8.1 19.5 14 28 1.9 3 4.1 5.6 6.3 8.5 3.3 77.1 21.4 142.1 21.4 142.1z"/>
							</g>
							<g id="Layer">
								<path id="Layer" class="s3" d="m530.7-106.8c0.9-3.7 6.5-2.4 5.8 1.3-5.9 27.8-10.6 55.7-13.1 84-8.9 100.4 5.6 203.6 41.5 297.8 0.6 1.7-2 2.6-2.7 0.9-10.9-26.5-20.1-53.8-27.2-81.5-25.2-98-27.5-203.9-4.3-302.5z"/>
							</g>
							<g id="Layer">
								<path id="Layer" class="s4" d="m143.8 427.7q-27.5-13.3-51.1-29.2c-5.1-12.3-9-25.8-17.6-36-0.1-0.4-0.5-0.3-0.8-0.2-4.1 5.3-5 12.7-5.4 19.5-28.6-21.7-52.8-45.4-73-68.8l0.3-213.4c16.2 3 35.6 10.4 53.3 25.3-1.8 9.6-2.7 19.3-3 28.8-12.7-1.9-23.2-0.6-35.1 3.5-0.3 0.1 8.6 6.8 13.4 9.4 5.9 3.5 8.7 4.8 13.6 9.8 3.4 3.1 6.5 6.3 9 10.2 2.8 29.5 10.2 58.9 19.7 87.3-3.2-1.3-6.6-2.1-9.5-2.6-3.8-0.7-8.2-1.1-11.5 0.8l-0.2 0.5c4.2 9.9 14.1 15.8 22.4 21.9 2.8 2.2 5.7 3.9 8.8 6 28.3 71.7 66.7 127.2 66.7 127.2z"/>
							</g>
							<g id="Layer">
								<path id="Layer" class="s3" d="m-39 47.2c-0.4-3.8 5.4-4.5 5.9-0.7 3.5 28.2 8.2 56.1 15.1 83.7 24.4 97.8 72 190.5 136.6 267.8 1.2 1.4-1 3.1-2.2 1.7-18.9-21.5-36.6-44.2-52.4-68.1-55.8-84.3-92.7-183.6-103-284.4z"/>
							</g>
						</g>
					</g>
				</g>
			</g>
		</g>
	</g>
</svg>