<svg version="1.2" xmlns="http://www.w3.org/2000/svg" viewBox="0 0 503 469" width="503" height="469">
	<title>background3-svg</title>
	<style>
		.s0 { fill: #c4803d } 
		.s1 { fill: #f7a84c } 
		.s2 { fill: #182047 } 
	</style>
	<g id="Layer">
		<g id="Layer">
			<path id="Layer" fill-rule="evenodd" class="s0" d="m154.3 232.2q0.5-0.5 1.2-0.8c-2.5-14-2.9-29.1 5.6-41.2 4.8-6.9 11.3-10.7 18.5-12.6q1.8-1.3 4-2.4c4.1-2 9.4-3 14.2-2.5q0.3-0.1 0.6-0.2l0.1-0.3q0.1-0.4 0.5-0.7 0.1-0.2 0.5-0.4c1.7-0.8 3.5-1 5.2-0.7 4.6-2.7 9.6-2.8 14.4-1.3 5.4-1.5 11.2-1.9 16.8-1 11.6 1.7 20.5 9 29.1 16.3 0.6-0.6 1.4-1 2.4-1.1 0.4 0 0.9 0.5 0.8 0.9-0.1 1.1-0.8 2.2-1.8 2.7-0.4 0.5-1 1-1.7 1.1-0.4 0.1-0.7-0.2-0.6-0.6q0 0 0 0-0.2-0.2-0.2-0.5 0.1-0.8 0.4-1.5c-8.3-6.6-17.3-13.1-28-14.8-4.4-0.7-8.8-0.6-13.1 0.1 4.5 2.3 8.5 5.7 11.5 9.5q0.2 0.2 0.3 0.4c15 8.8 26.1 23.5 29.3 41.4 0.5-0.1 1-0.1 1.3-0.1q0.4 0.1 0.7 0.4c0.5 0.3 0.6 1.1 0 1.4q-0.1 0.3-0.4 0.4c-1.2 0.3-2.3 0.7-3.5 1-0.9 0.3-1.5-1-0.7-1.5q0.2-0.1 0.4-0.1c0-0.4 0-0.8 0.4-1q0.3-0.1 0.7-0.3c-3.6-15.3-12.6-28.5-24.9-37.2 7.4 11.1 12.2 24.1 15 37.1q0.2-0.1 0.3-0.2 0.1 0 0.1-0.1c0.3-0.3 0.8-0.3 1.1-0.1q0.5-0.1 1-0.1c0.9 0 1.1 1.1 0.5 1.5-0.8 0.6-1.8 1-2.8 1.1q-0.1 0-0.1 0-0.3 0.2-0.5 0.2-0.3 0-0.7 0c-0.8 0-1.2-1.2-0.4-1.6q0.2-0.1 0.4-0.2c-3-13.4-8.5-26.2-16.3-37.5q-1-1.5-2.2-3c-6.5-3.7-13.8-6.3-21.4-7.4q0.5 0.5 1 1.1c2.1 2.3 4 4.8 5.7 7.4 3.7 3 7.1 6.5 10.1 10.3 8.9 11.3 13.8 25.1 16.8 39 0.4-0.1 0.8-0.2 1.2-0.1 0.7 0.1 1.3 0.9 0.6 1.5q-0.1 0.1-0.2 0.2c-0.2 0.3-0.5 0.6-0.9 0.7q-1 0.6-2.2 0.8c-0.7 0.2-1.5-0.5-1-1.2q0-0.1 0-0.1 0.1-0.3 0.4-0.5 0 0 0.1-0.1 0.3-0.4 0.8-0.7c-2.9-12.3-7.4-24.3-14.7-34.6q-3.2-4.6-7.1-8.6 1.1 2.2 2.1 4.5c6.4 13.9 9.2 29 12 44 0.7-0.2 1.4-0.2 1.8 0.3 0.8 0 1.5 1.1 0.6 1.6q-0.4 0.2-0.9 0.4 0 0-0.1 0c-0.4 0.5-1 0.5-1.6 0.4q-0.7 0.2-1.4 0.2-0.4 0.1-0.8 0.2c-0.8 0.3-1.2-0.6-0.9-1.2 0-0.2 0.1-0.5 0.3-0.6 0.4-0.2 1-0.5 1.6-0.8-2.6-12.7-5.4-25.3-10.2-37.3-2.3-6.1-5.2-11.9-8.9-17.3-2-1.7-4.5-3.6-7.1-4.9q0.1 0.2 0.2 0.3c2.9 4.9 4.5 10.5 6 16 3.5 12.7 4.6 25.8 3.8 38.9q0.2 0 0.4 0 1.1-0.4 2.4-0.4c0.9 0 1.1 1.1 0.5 1.6q-0.5 0.3-1 0.5-0.1 0.3-0.5 0.4-0.3 0.1-0.5 0.2c-1 0.6-2.5 0.7-3.6 0.8-0.9 0.1-1.3-1.1-0.7-1.7q0.7-0.7 1.5-1c0.4-11.5-0.8-22.9-3.5-34.1-1.2-5.1-2.7-10.2-4.7-15.1-0.9-2.2-1.9-4.4-3.3-6.4q-1.5 0.4-2.8 1c-0.3 4.6-0.8 9.2-0.7 13.8 0.1 7 0.8 14 2 21 2.2 12.3 5.2 26.8 15.4 35.1 0.6-0.5 1.2-0.9 1.8-1.1 0.8-0.4 1.3 0.7 1 1.3-0.7 1.6-2 2.9-3.6 3.6-0.9 0.4-1.7-0.6-1.1-1.4q0.5-0.7 1-1.3c-10.5-8.1-14.3-21.9-16.7-34.4-1.4-7.3-2.2-14.8-2.3-22.2-0.1-4-0.2-8.2 0.1-12.4-2.3 1.9-3.9 4.5-5.1 7.4-1.5 6-2 12.3-1.7 18.5 0.6 15.3 5.5 30 10.5 44.3q0.1 0 0.1 0 0.9-0.3 1.9-0.4c1-0.1 1.1 1.1 0.5 1.6-1.4 1-3.1 1.6-4.8 1.7-0.7 0.1-1.2-0.9-0.6-1.4q0.8-0.6 1.7-1.1c-5.2-13.8-10.6-28-11.7-42.9-1.6 11.9-2 24 0.8 35.7q0.4-0.1 0.8-0.1c0.6-0.1 0.9 0.7 0.7 1.2-1 1.8-3.4 2.5-5.2 1.4-0.6-0.3-0.4-1.2 0.2-1.4q1-0.4 2-0.7c-3.4-13.3-3.2-26.9-1.2-40.4 0.7-4.5 1.5-11 3.6-16.7q0.2-0.9 0.4-1.8 1.2-4.3 3.1-8.3-2.3-0.1-4.6-0.1-1.4 0.9-2.6 2.1c-4.7 4.6-6.8 10.7-7.9 17.1-2.4 13.7-0.7 27.9 5.1 40.6q0.3 0 0.6 0 0.2 0 0.3 0 0.1 0 0.1 0c0.8-0.2 1.5 0.8 0.8 1.4q-0.4 0.5-1 0.8-0.2 0.3-0.5 0.4-1.1 0.6-2.3 1c-0.8 0.2-1.3-0.6-1-1.2 0.3-0.7 0.9-1.4 1.6-1.8-6.3-13.6-8.7-29.2-5.7-44 1.2-6.2 3.8-11.9 8.4-16.3q-3.7 0.2-7.1 1.1c-5.6 4.3-8 11-9.5 17.9-3.6 16.4-5.1 34.2 1.9 49.8q0.7-0.2 1.3-0.3 0.1 0 0.2-0.1 0.3-0.1 0.5 0.1 0 0 0 0c0.7 0 1 0.8 0.6 1.3-1.1 1.3-2.7 2-4.3 1.9-0.8 0-1-1-0.4-1.4q0 0 0.1 0 0.2-0.5 0.6-0.8c-7.8-16.9-6.9-37.2-2.1-54.9 1.2-4.4 3-8.4 5.7-11.7-4.8 2-9.2 5.4-12.5 10.4-7.6 11.4-7.9 25.7-5.8 38.8 0.8 0 1.6 0.2 2.3 0.7 0.4 0.2 0.7 0.9 0.2 1.2-1.2 1.1-2.9 1.3-4.4 0.7q0 0 0 0c-0.7 0-1.4-0.8-0.8-1.4zm60.7-59c5.1 0.9 10 2.5 14.7 4.7-2.9-2.8-6.2-5.1-9.7-6.4q-2.6 0.7-5 1.7z"/>
		</g>
		<g id="Layer">
			<path id="Layer" fill-rule="evenodd" class="s1" d="m272.1 198.3q0 0.1 0 0.1c-0.9 1.4-2.3 2.2-4 2.1-0.5-0.1-0.7-0.7-0.6-1.2 0.3-0.8 0.8-1.4 1.5-1.8-6.1-11.9-14.8-23.2-27.7-27.9-5.6-2-11.1-2.1-16.3-0.9 4.2 1.1 8.1 3.2 11.6 6 14.4 11.4 27.1 27.2 30.9 45.5q0.5 0 1 0.2 0 0 0.1 0c0.7-0.1 1.1 0.9 0.5 1.3-1.3 1.1-3 1.4-4.6 1-0.7-0.1-0.9-0.9-0.4-1.4q0 0 0.1 0 0.1-0.2 0.3-0.3 0.1 0 0.3 0 0.5-0.4 1.2-0.6c-3.7-16.7-15.4-30.2-28-41.2-5.4-4.7-11.3-8.6-18.3-8.8q-3.3 1.4-6.4 3.3c6.3 0.8 11.8 4 16.5 8.2 11.1 10.2 18.4 24.1 21.5 38.8 0.8-0.1 1.6 0.1 2.3 0.5 0.6 0.3 0.7 1.2 0 1.5q-1.2 0.5-2.5 0.6-0.3 0.1-0.7 0-0.6 0-1.2 0c-0.9-0.1-0.9-1.3-0.2-1.6q0-0.1 0.1-0.1 0.1-0.1 0.2-0.2 0.2-0.2 0.5-0.4c-2.9-13.6-9.9-26-20-35.7-4.7-4.4-10-8.2-16.5-9q-1.7-0.3-3.3-0.2-1.9 1.3-3.7 2.9 3.9 2.1 7.4 4.8 0.7 0.6 1.5 1.1c4.9 3.4 9.4 8.2 12.7 11.4 9.7 9.6 17.9 20.5 23.1 33.2q0.9-0.4 1.9-0.6c0.7-0.2 1.3 0.4 1.1 1-0.8 1.9-3.2 2.9-5.1 1.9-0.5-0.2-0.6-1-0.1-1.3q0.4-0.3 0.7-0.4c-4.7-11.1-12.2-20.6-20.6-29.2 8 12.6 12.1 27.2 16.1 41.5q1-0.2 2-0.2c0.8 0.1 1 1.2 0.4 1.5-1.5 1-3.2 1.5-4.9 1.5-0.8 0-1.4-1.1-0.6-1.6q0.9-0.5 1.8-0.8 0 0 0.1 0c-4.5-14.6-9.3-29.3-17.8-42-3.5-5.1-7.6-9.9-12.4-13.8-2.7-1.7-5.5-2.8-8.5-3 2.7 3.2 5.2 6.7 7.4 9.9 4.3 6.1 8.1 12.6 11.4 19.3 5.5 11.5 10.6 24.9 7 37.6q0.7 0.2 1.5 0.4c1 0.3 0.9 1.6-0.1 1.8-1.7 0.4-3.5 0.1-5-0.7-0.6-0.4-0.8-1.5 0.1-1.7 0.6-0.2 1.3-0.3 2-0.2 3.4-12.7-2.8-26.1-8.4-37.4-3.1-6.3-6.8-12.3-10.8-18.1-2.7-3.7-5.8-7.1-8.8-10.6q-1.4 0.2-2.8 0.9c0.1 2.4 0.5 4.8 1.1 7.1 1.3 5.1 3.2 10.1 5.2 14.9 4.5 10.6 10.2 20.5 17.4 29.5q0.9-0.2 1.8-0.1c0.8 0.1 1.2 1.3 0.4 1.8-0.8 0.5-2.1 1.4-3.3 1.4q-0.2 0.1-0.5 0.2-0.4 0.2-0.7 0-0.5 0.1-1.1 0.1c-0.8 0-1.3-1-0.5-1.5q1-0.8 2.2-1.1 0.1-0.1 0.3-0.2c-8.5-10.1-15.4-21.3-20.1-33.6-2-5.3-4-10.8-4.6-16.4q0-0.2 0-0.4c-1.3 2.6-2.2 5.6-2.9 8.2 0.3 6.4 1.4 12.9 3.1 19.2 3.3 12.4 8.6 24.3 14 36 0.7-0.1 1.3-0.2 1.7-0.2 0.3-0.1 0.5 0.1 0.7 0.2 0.6 0.3 0.7 1.3-0.1 1.5q-0.4 0.2-0.8 0.3-0.5 0.5-1.2 0.8c-0.4 0.3-0.9 0.7-1.5 0.6q-0.1 0-0.1 0-0.5 0.1-0.9 0.2c-1.1 0.2-1.2-1.2-0.4-1.6 0-0.6 0.5-1.1 1.1-1.3-6.6-13.8-13.2-27.6-16.4-42.6q-0.5-2.4-0.9-4.8-0.8 5.5-0.7 11.1c0.3 12.7 3.7 25 8.7 36.6q0.6 0 1.1 0.1 0.1 0 0.1 0 0.4-0.1 0.6 0.2 0.1 0 0.1 0c0.8 0.3 0.6 1.3 0 1.6q-1.1 0.6-2.4 0.7c-0.3 0.1-0.7 0.1-1.1-0.1q-0.1 0-0.3 0c-0.9-0.2-0.9-1.1-0.3-1.6 0.2-0.3 0.6-0.5 1-0.6-5.9-13-10.1-27-9.6-41.4 0.1-4.8 0.8-9.6 2-14.3-0.2-3.1-0.2-6.2 0.1-9.3q0.1-0.7 0.2-1.5c-5.5 5.4-9.8 11.8-12.8 18.7q-0.1 1.9 0 3.7c0.4 13.7 3.6 27.3 9.1 39.8q0.2 0 0.5 0c0.8-0.1 1.3 1 0.6 1.6q-0.3 0.1-0.6 0.3-0.2 0.2-0.5 0.2 0 0 0 0c-0.9 0.5-1.9 0.8-2.9 0.8-0.8 0-1.3-1-0.6-1.5q0.4-0.3 0.9-0.5c0.1-0.4 0.5-0.7 0.9-0.5q0.1 0 0.2 0 0.2-0.1 0.3-0.1c-5.5-12.1-9.3-25.4-9.9-38.7-4.7 14.2-4.2 30.2 2.1 44.7q0.3-0.1 0.7-0.2c0.4-0.1 0.7 0.2 0.8 0.5q0.2 0 0.5 0c0.9-0.2 1.2 1.2 0.3 1.5-1.1 0.5-2.3 0.9-3.4 1.3q-0.3 0.1-0.6 0c-0.6 0-1-0.7-0.8-1.3q0-0.3 0.3-0.6c0.3-0.2 0.7-0.5 1.1-0.8-8-16.2-7.8-34.7-1-50.6q0-0.3 0-0.6c0.2-4.8 1.4-9.9 3.7-14.4-3.9 1.9-7.6 4.5-10.7 7.6-7.6 7.8-11 18.3-13.7 28.6q0.6 0.4 1.2 1 0.1 0.2 0.1 0.5 0.1 0 0.1 0c0.3 0.3 0.2 0.7-0.2 0.8-0.6 0.3-1.3 0.3-2.1 0.1-1 0.2-2.2-0.2-3-1-0.3-0.3-0.2-1 0.2-1.3 0.8-0.4 1.7-0.6 2.5-0.5 2.7-11 5.5-22.1 13.8-30.4 4-4 8.8-7.1 14.1-9.2 2.9-4 7.1-6.9 12.4-7.5 1.2-1.2 2.7-2.1 4.6-2.5q0.4 0 0.6 0.1 0.5-0.1 0.9 0.2l0.2 0.2q0.3-0.1 0.6-0.1c3.6-3.4 8.4-5.6 13-6.5q2.3-0.5 4.6-0.4c6.9-2.8 14.4-3.6 22.3-0.9 14 4.7 22.7 17.1 29 29.8q0.7-0.1 1.4 0c0.9 0.1 0.8 1.2 0.2 1.5zm-89.1-11.4c-2 3.2-3.3 7-4 10.9 2.4-4.5 5.5-8.7 9.1-12.5q-2.6 0.6-5.1 1.6z"/>
		</g>
		<g id="Layer">
			<path id="Layer" class="s2" d="m202.2-5.9c-10.4 7.6-16.2 20.4-20.8 32-17.8 45.7-10.2 96.1 10.3 139.5-3.7 3.7-5.1 11.7-2.6 16 0.1 0.2 0.3 0.3 0.6 0.3 0.2 0.1 0.6 0.3 0.8 0.1 2-2.5 13.2-8.6 17.3-8q0.5-0.1 0.8-0.5c0.4-0.5 0.5-1.1 0.4-1.6-0.1-2.5-3.9-5.1-5.8-6-1.6-0.7-5.6-2.3-8-1.7-5.1-10.8-9.5-22.1-12.9-33.6-6.7-23.5-9-48.1-5.7-72.3 1.6-11.4 4.5-22.5 8.7-33.2 4.1-10.5 9.4-22.2 18.6-29.2 1.2-1-0.5-2.7-1.7-1.8z"/>
		</g>
		<g id="Layer">
			<path id="Layer" fill-rule="evenodd" class="s0" d="m340.1 211.3q0.7-0.3 1.3-0.4c1.7-14.1 5.9-28.7 17.5-37.8 6.6-5.1 13.9-6.9 21.3-6.6q2.2-0.7 4.5-1.1c4.6-0.7 9.9-0.2 14.4 1.8q0.3 0 0.6 0l0.2-0.3q0.2-0.4 0.7-0.5 0.2-0.2 0.6-0.3c1.9-0.2 3.6 0.1 5.1 0.9 5.2-1.3 10.1 0.1 14.2 2.9 5.7 0.2 11.2 1.5 16.4 4 10.5 5 16.9 14.6 23 24.1 0.8-0.4 1.7-0.5 2.6-0.3 0.4 0 0.8 0.6 0.6 1.1-0.5 1-1.4 1.8-2.5 2-0.6 0.4-1.3 0.6-2 0.6-0.4-0.1-0.6-0.4-0.4-0.8q0 0 0 0-0.1-0.3 0-0.6 0.3-0.7 0.8-1.3c-6-8.7-12.7-17.6-22.5-22.4-4-1.9-8.2-3.1-12.5-3.6 3.6 3.4 6.4 7.9 8.2 12.4q0.1 0.3 0.2 0.5c11.7 12.8 18 30.1 15.9 48.1 0.5 0.1 0.9 0.2 1.2 0.4q0.4 0.1 0.5 0.5c0.5 0.4 0.3 1.3-0.3 1.4q-0.2 0.2-0.5 0.2c-1.2 0-2.5 0-3.7 0-0.9-0.1-1.1-1.5-0.2-1.6q0.2-0.1 0.5-0.1c0-0.4 0.2-0.7 0.6-0.8q0.3 0 0.7-0.1c1.1-15.7-3.7-30.9-12.9-42.8 3.9 12.7 4.7 26.6 3.5 39.8q0.2 0 0.4 0 0.1-0.1 0.1-0.1c0.4-0.3 0.8-0.1 1.1 0.2q0.5 0 1 0.2c0.8 0.3 0.7 1.3 0 1.6-1 0.3-2.1 0.4-3.1 0.2q0 0 0 0-0.3 0.1-0.6 0-0.3-0.1-0.6-0.2c-0.8-0.2-0.8-1.5 0.1-1.7q0.2 0 0.4-0.1c1.1-13.6-0.4-27.5-4.6-40.5q-0.5-1.8-1.3-3.6c-5.1-5.5-11.2-10-18.3-13.3q0.4 0.7 0.7 1.4c1.4 2.7 2.4 5.7 3.3 8.6 2.7 4.1 4.9 8.4 6.6 12.9 5.2 13.4 5.9 28 4.7 42.2 0.4 0 0.8 0 1.1 0.3 0.7 0.2 1 1.1 0.2 1.6q-0.1 0-0.2 0.1c-0.3 0.3-0.7 0.4-1.1 0.4q-1.2 0.3-2.4 0.2c-0.7-0.1-1.2-1-0.6-1.6q0.1 0 0.1 0 0.1-0.3 0.5-0.4 0 0 0.1 0 0.5-0.3 1-0.5c0.8-12.6 0-25.3-3.9-37.4q-1.8-5.3-4.4-10.2 0.5 2.4 0.8 4.8c2 15.2 0.3 30.5-1.4 45.6 0.8 0.1 1.4 0.3 1.6 0.9 0.8 0.1 1.1 1.5 0.1 1.6q-0.5 0.1-0.9 0.1-0.1 0.1-0.1 0.1c-0.6 0.3-1.1 0.1-1.7-0.1q-0.7-0.1-1.4-0.3-0.4 0-0.8 0c-0.9 0-1-0.9-0.6-1.4 0.1-0.2 0.3-0.4 0.6-0.5 0.3-0.1 1-0.2 1.7-0.3 1.2-12.9 2.2-25.8 1.2-38.7-0.5-6.4-1.6-12.9-3.4-19.1-1.5-2.2-3.4-4.8-5.5-6.8q0.1 0.2 0.1 0.4c1.3 5.5 1.3 11.4 1.2 17-0.4 13.2-3.2 26-7.8 38.4q0.2 0 0.3 0.1 1.2-0.1 2.5 0.3c0.8 0.3 0.7 1.3-0.1 1.6q-0.5 0.2-1 0.3-0.2 0.2-0.7 0.2-0.2 0-0.5 0c-1.1 0.3-2.6 0-3.6-0.3-0.9-0.2-0.9-1.4-0.2-1.8q0.8-0.4 1.7-0.5c3.8-10.9 5.9-22.2 6.7-33.6 0.3-5.3 0.4-10.6-0.1-15.8-0.2-2.4-0.6-4.8-1.3-7.1q-1.6-0.1-3 0.1c-1.6 4.3-3.4 8.5-4.7 13-1.9 6.7-3.3 13.7-4.2 20.7-1.5 12.4-2.9 27.1 4.5 38 0.6-0.3 1.3-0.5 1.9-0.5 0.9-0.1 1.1 1 0.7 1.5-1.2 1.3-2.8 2.2-4.5 2.4-1 0.1-1.5-1-0.7-1.7q0.7-0.4 1.4-0.8c-7.7-10.9-7.3-25.2-5.9-37.8 0.8-7.5 2.2-14.8 4.2-22 1.1-3.8 2.2-7.9 3.7-11.8-2.7 1.1-5 3.1-7 5.6-3.2 5.3-5.5 11.2-7 17.2-3.9 14.8-3.5 30.3-2.9 45.4q0 0 0.1 0 0.9 0 1.9 0.2c1 0.2 0.7 1.4 0 1.7-1.6 0.6-3.4 0.7-5.1 0.3-0.7-0.2-0.8-1.3-0.2-1.6q1-0.4 2-0.5c-0.9-14.8-1.9-29.9 1.4-44.5-5 10.9-9 22.3-9.8 34.4q0.5 0 0.9 0.1c0.6 0.1 0.7 1 0.3 1.4-1.5 1.4-4 1.3-5.4-0.2-0.5-0.5 0-1.3 0.6-1.3q1.1-0.1 2.1-0.1c0.6-13.7 4.8-26.7 10.7-38.9 2-4.2 4.7-10.2 8.3-15q0.5-0.8 1-1.6 2.3-3.7 5.3-7-2.2-0.8-4.4-1.5-1.5 0.5-3 1.3c-5.9 3-9.7 8.3-12.6 14-6.3 12.5-8.8 26.5-7 40.4q0.3 0 0.6 0.1 0.1 0 0.3 0.2 0 0 0.1 0c0.7 0 1.2 1.2 0.4 1.6q-0.6 0.2-1.2 0.4-0.4 0.2-0.7 0.2-1.2 0.3-2.5 0.3c-0.8 0-1-0.9-0.6-1.4 0.6-0.6 1.3-1.1 2.1-1.3-2-14.9 0.2-30.4 7.4-43.7 3-5.6 7.1-10.3 12.8-13.2q-3.6-0.8-7.1-1c-6.6 2.5-10.9 8.2-14.4 14.4-8.2 14.5-14.8 31.2-12.7 48.1q0.7 0 1.4 0.1 0.1 0 0.2 0 0.3 0 0.5 0.2 0 0 0 0c0.7 0.2 0.7 1.1 0.1 1.4-1.4 0.9-3.1 1.2-4.7 0.6-0.7-0.2-0.7-1.2 0.1-1.4q0 0 0.1-0.1 0.3-0.3 0.8-0.5c-2.5-18.5 4.3-37.6 14-53.1 2.5-3.8 5.4-7.2 9-9.6-5.3 0.6-10.4 2.5-15.1 6.3-10.6 8.7-15 22.3-16.9 35.5 0.8 0.2 1.5 0.6 2.1 1.3 0.2 0.3 0.3 1-0.2 1.2-1.5 0.7-3.2 0.4-4.4-0.6q-0.1 0-0.1-0.1c-0.7-0.1-1.1-1.1-0.3-1.5zm75.3-38.7c4.6 2.4 8.9 5.4 12.7 8.8-2-3.4-4.5-6.6-7.4-9q-2.7 0-5.3 0.2z"/>
		</g>
		<g id="Layer">
			<path id="Layer" fill-rule="evenodd" class="s1" d="m462.6 213.4q0 0 0 0c-1.2 1.1-2.8 1.5-4.4 0.9-0.5-0.2-0.5-0.9-0.2-1.3 0.5-0.7 1.2-1.1 1.9-1.4-2.3-13-7.3-26.5-18.3-34.7-4.8-3.6-10-5.3-15.3-5.7 3.7 2.3 6.8 5.5 9.3 9.3 10.4 15.1 18 33.8 16.2 52.4q0.6 0.2 0.9 0.5 0.1 0 0.1 0c0.8 0.2 0.8 1.2 0.1 1.5-1.5 0.6-3.3 0.5-4.7-0.4-0.6-0.3-0.6-1.2 0.1-1.4q0 0 0 0 0.2-0.2 0.5-0.2 0.1 0 0.2 0 0.6-0.2 1.3-0.2c1.4-17-5.8-33.4-14.7-47.6-3.7-6-8.2-11.5-14.9-13.8q-3.5 0.4-7.1 1.4c5.8 2.6 10.1 7.2 13.4 12.6 7.7 13 10.6 28.4 9.2 43.3 0.8 0.2 1.5 0.6 2.1 1.2 0.4 0.5 0.3 1.4-0.5 1.5q-1.3 0.1-2.5-0.2-0.4 0-0.7-0.2-0.6-0.1-1.2-0.4c-0.8-0.3-0.5-1.5 0.3-1.6q0.1 0 0.1 0 0.1-0.1 0.3-0.2 0.3-0.1 0.6-0.1c1.2-13.9-1.9-27.8-8.7-40-3.2-5.7-7.1-10.8-13.1-13.5q-1.6-0.7-3.2-1.2-2.1 0.8-4.3 1.7 3.1 3.2 5.7 6.8 0.5 0.8 1 1.5c3.8 4.7 6.7 10.6 8.9 14.6 6.4 12 11.1 24.9 12.3 38.5q1-0.1 2.1 0c0.7 0 1.1 0.7 0.6 1.3-1.3 1.6-3.8 1.8-5.3 0.4-0.4-0.4-0.3-1.3 0.3-1.4q0.4-0.1 0.8-0.2c-1.3-12-5.7-23.2-11.2-33.9 3.9 14.4 3.5 29.6 3.3 44.4q1 0.1 1.9 0.4c0.7 0.3 0.6 1.4-0.1 1.6-1.7 0.5-3.4 0.4-5.1-0.1-0.7-0.2-1-1.4-0.1-1.7q1-0.2 2-0.2 0 0 0 0c0.1-15.2-0.2-30.7-4.7-45.3-1.8-5.9-4.4-11.7-7.8-16.9-2-2.4-4.4-4.3-7.2-5.3 1.6 3.8 3 7.9 4.2 11.6 2.3 7.1 4 14.4 5.2 21.8 1.9 12.6 2.8 26.9-4.4 38q0.7 0.4 1.4 0.9c0.9 0.5 0.5 1.7-0.6 1.6-1.7-0.1-3.3-0.9-4.6-2.1-0.5-0.5-0.3-1.7 0.6-1.7 0.6 0.1 1.3 0.2 2 0.5 6.9-11.2 4.9-25.8 2.9-38.2-1.2-6.9-2.9-13.8-5.1-20.5-1.4-4.4-3.4-8.5-5.2-12.7q-1.4-0.2-3 0c-0.6 2.3-0.9 4.7-1 7.1-0.3 5.3 0 10.6 0.6 15.8 1.2 11.4 3.8 22.6 8 33.3q0.9 0 1.8 0.5c0.7 0.3 0.7 1.6-0.1 1.8-1.1 0.2-2.5 0.7-3.7 0.4q-0.2 0-0.5 0-0.4 0-0.7-0.2-0.5 0-1-0.2c-0.8-0.2-1-1.3-0.1-1.6q1.2-0.5 2.4-0.4 0.2-0.1 0.4-0.2c-5.1-12.1-8.5-24.8-9.4-37.9-0.4-5.7-0.7-11.5 0.4-17.1q0-0.2 0.1-0.4c-2 2.1-3.8 4.8-5.1 7-1.7 6.3-2.5 12.8-2.7 19.3-0.5 12.9 1.1 25.8 2.8 38.5 0.7 0.1 1.4 0.2 1.8 0.3 0.2 0.1 0.4 0.2 0.5 0.5 0.5 0.4 0.4 1.4-0.5 1.4q-0.4 0-0.8 0-0.7 0.3-1.4 0.4c-0.5 0.2-1.1 0.4-1.7 0.1q0 0 0 0-0.5 0-1-0.1c-1-0.1-0.7-1.4 0.1-1.6 0.2-0.6 0.8-0.9 1.5-1-2.3-15-4.6-30.2-3.3-45.4q0.2-2.5 0.6-5-2.4 5.1-3.9 10.5c-3.5 12.2-3.8 25-2.4 37.5q0.5 0.2 1 0.4 0.1 0 0.1 0 0.4 0.2 0.5 0.4 0.1 0 0.1 0.1c0.7 0.5 0.2 1.4-0.5 1.5q-1.2 0.2-2.4-0.1c-0.4 0.1-0.8-0.1-1.1-0.3q-0.1-0.1-0.2-0.1c-0.9-0.4-0.6-1.4 0.1-1.6 0.3-0.3 0.7-0.4 1.1-0.4-1.7-14.1-1.7-28.7 2.9-42.3 1.6-4.6 3.6-9 6.1-13.1 0.8-3 1.7-6 2.9-8.8q0.3-0.7 0.7-1.4c-6.9 3.5-12.9 8.4-17.8 14q-0.6 1.9-1.1 3.6c-3.6 13.3-4.5 27.2-2.9 40.8q0.2 0 0.4 0c0.9 0.2 1 1.5 0.1 1.7q-0.3 0.1-0.6 0.2-0.2 0.1-0.5 0 0 0-0.1 0c-1 0.3-2 0.3-3 0-0.7-0.3-0.9-1.3-0.1-1.6q0.5-0.2 1-0.3c0.3-0.3 0.7-0.5 1.1-0.2q0 0 0.1 0.1 0.2 0 0.4 0c-1.7-13.2-1.5-27.1 1.9-40-8.8 12.3-12.9 27.7-11.2 43.4q0.4 0 0.7 0c0.4 0.1 0.7 0.4 0.7 0.8q0.2 0 0.4 0c1 0.2 0.8 1.6-0.1 1.7-1.2 0.1-2.4 0.1-3.7 0.2q-0.3 0-0.5-0.2c-0.6-0.1-0.8-1-0.4-1.4q0.1-0.4 0.5-0.6c0.3-0.1 0.8-0.3 1.2-0.4-2.8-17.9 2.7-35.5 13.9-48.7q0.1-0.3 0.2-0.5c1.6-4.6 4.2-9.1 7.7-12.7-4.3 0.6-8.5 2-12.4 4.1-9.5 5.2-15.9 14.3-21.5 23.3q0.5 0.6 0.8 1.3 0.1 0.3 0.1 0.5 0 0 0 0.1c0.2 0.3 0 0.7-0.4 0.7-0.7 0.1-1.4-0.1-2-0.5-1.1-0.1-2.1-0.9-2.6-1.9-0.2-0.4 0.1-1 0.5-1.1 0.9-0.2 1.8-0.1 2.6 0.3 5.8-9.8 11.7-19.7 22.1-25.2 5-2.6 10.5-4.2 16.1-4.6 4-3 8.8-4.5 14.1-3.5 1.5-0.8 3.2-1.2 5.1-1.1q0.4 0.1 0.6 0.3 0.4 0.1 0.7 0.5l0.2 0.2q0.3 0 0.6 0c4.4-2.1 9.7-2.9 14.3-2.4q2.4 0.3 4.5 1c7.5-0.7 14.8 0.8 21.6 5.7 12 8.6 16.8 22.9 19 37q0.7 0 1.4 0.3c0.8 0.4 0.4 1.4-0.3 1.6zm-81.8-37c-2.9 2.4-5.2 5.7-7 9.2 3.6-3.5 7.8-6.7 12.3-9.3q-2.7-0.1-5.3 0.1z"/>
		</g>
		<g id="Layer">
			<path id="Layer" class="s2" d="m455.6-2.3c-12.2 4.2-21.5 14.7-29.3 24.5-30.4 38.4-37.9 88.9-31 136.4-4.6 2.4-8.3 9.7-7.1 14.5 0 0.2 0.2 0.4 0.4 0.5 0.2 0.2 0.6 0.4 0.8 0.3 2.6-1.8 15.1-4.4 18.8-2.6q0.5 0.1 1-0.3c0.5-0.3 0.8-0.8 0.8-1.3 0.7-2.5-2.2-6.1-3.8-7.5-1.3-1.1-4.6-3.8-7.1-3.9-1.8-11.9-2.7-23.9-2.5-36 0.4-24.4 5.4-48.6 15.7-70.8 4.8-10.4 10.8-20.2 18-29.1 7-8.9 15.5-18.5 26.3-22.6 1.5-0.5 0.4-2.7-1-2.1z"/>
		</g>
		<g id="Layer">
			<path id="Layer" fill-rule="evenodd" class="s0" d="m123.3 210q0 0 0 0c-1.2 1.1-2.9 1.4-4.4 0.7-0.5-0.2-0.5-0.9-0.2-1.3 0.5-0.6 1.3-1 2-1.2-1.8-13.2-6.2-26.8-16.8-35.5-4.7-3.8-9.8-5.7-15.1-6.3 3.6 2.4 6.5 5.7 8.9 9.6 9.8 15.5 16.6 34.6 14.1 53.1q0.5 0.2 0.8 0.5 0.1 0 0.1 0c0.7 0.3 0.8 1.3 0.1 1.5-1.6 0.5-3.4 0.3-4.7-0.6-0.6-0.4-0.6-1.2 0.1-1.4q0 0 0 0 0.2-0.2 0.5-0.2 0.1 0 0.2 0 0.7-0.1 1.4-0.1c2-17-4.5-33.6-12.8-48.2-3.5-6.2-7.7-11.8-14.3-14.3q-3.5 0.2-7.1 1c5.7 2.8 9.8 7.6 12.8 13.2 7.1 13.3 9.4 28.8 7.4 43.7 0.8 0.2 1.5 0.6 2 1.2 0.5 0.6 0.3 1.4-0.5 1.5q-1.3 0-2.5-0.3-0.4 0-0.7-0.2-0.6-0.2-1.2-0.5c-0.8-0.3-0.4-1.5 0.4-1.6q0.1 0 0.1 0 0.1-0.1 0.3-0.1 0.3-0.1 0.6-0.2c1.8-13.8-0.7-27.8-7-40.3-2.9-5.8-6.7-11-12.6-14q-1.5-0.8-3.1-1.3-2.2 0.7-4.3 1.5 2.9 3.3 5.3 7 0.5 0.8 1 1.6c3.6 4.8 6.2 10.8 8.2 14.9 6 12.3 10.2 25.3 10.8 39q1 0 2.1 0c0.6 0.1 1.1 0.9 0.6 1.4-1.4 1.5-4 1.6-5.4 0.1-0.4-0.4-0.3-1.2 0.3-1.3q0.4-0.1 0.8-0.1c-0.7-12.1-4.7-23.5-9.7-34.4 3.3 14.5 2.3 29.7 1.4 44.5q1 0.1 1.9 0.5c0.7 0.3 0.5 1.4-0.1 1.5-1.7 0.4-3.5 0.3-5.1-0.2-0.8-0.3-1-1.5-0.1-1.7q1-0.2 2-0.2 0 0 0.1 0c0.6-15.2 1-30.6-2.9-45.4-1.6-6-3.9-11.9-7-17.2-2-2.5-4.3-4.5-7-5.7 1.4 4 2.6 8 3.7 11.9 2 7.1 3.4 14.5 4.2 21.9 1.4 12.7 1.8 27-5.9 37.8q0.7 0.5 1.3 0.9c0.9 0.6 0.4 1.8-0.6 1.7-1.7-0.2-3.3-1.1-4.5-2.4-0.5-0.5-0.2-1.6 0.6-1.6 0.6 0.1 1.4 0.3 2 0.6 7.4-10.9 6-25.6 4.5-38.1-0.9-7-2.3-13.9-4.2-20.7-1.3-4.4-3.1-8.6-4.7-12.9q-1.4-0.2-3-0.1c-0.7 2.3-1.1 4.7-1.3 7.1-0.5 5.2-0.4 10.5-0.1 15.8 0.7 11.4 2.9 22.7 6.7 33.5q0.9 0.1 1.7 0.6c0.7 0.4 0.7 1.6-0.2 1.8-1 0.2-2.5 0.6-3.6 0.3q-0.3 0-0.6 0-0.4 0-0.6-0.2-0.6-0.1-1.1-0.3c-0.7-0.3-0.9-1.4 0-1.6q1.2-0.4 2.4-0.4 0.2 0 0.4-0.1c-4.6-12.3-7.4-25.1-7.8-38.3-0.1-5.6-0.2-11.5 1.1-17q0.1-0.2 0.2-0.4c-2.1 2-4 4.6-5.5 6.8-1.9 6.2-2.9 12.6-3.4 19.1-1 12.9 0 25.8 1.2 38.7 0.7 0.1 1.3 0.2 1.7 0.3 0.3 0.1 0.4 0.3 0.5 0.5 0.5 0.5 0.3 1.4-0.5 1.4q-0.4 0-0.8 0-0.7 0.2-1.4 0.3c-0.6 0.2-1.1 0.3-1.7 0.1q0-0.1-0.1-0.1-0.5 0-0.9-0.1c-1.1-0.1-0.7-1.5 0.1-1.6 0.2-0.6 0.8-0.9 1.6-0.9-1.7-15.1-3.4-30.4-1.4-45.6q0.3-2.4 0.7-4.9-2.5 5-4.3 10.3c-3.9 12-4.8 24.8-3.9 37.4q0.5 0.2 1 0.5 0 0 0.1 0 0.3 0.1 0.5 0.4 0 0 0.1 0c0.6 0.6 0.1 1.5-0.6 1.5q-1.3 0.2-2.4-0.1c-0.4 0-0.8-0.2-1.1-0.4q-0.1-0.1-0.2-0.2c-0.8-0.4-0.5-1.3 0.1-1.6 0.3-0.2 0.8-0.3 1.2-0.3-1.2-14.2-0.5-28.7 4.7-42.1 1.7-4.6 3.9-8.9 6.6-12.9 0.9-3 1.9-5.9 3.2-8.7q0.4-0.7 0.8-1.3c-7.1 3.3-13.2 7.8-18.3 13.3q-0.8 1.8-1.3 3.5c-4.2 13.1-5.7 27-4.6 40.6q0.2 0.1 0.4 0.1c0.9 0.2 0.9 1.5 0.1 1.7q-0.3 0.1-0.6 0.1-0.3 0.2-0.6 0.1 0 0-0.1 0c-0.9 0.2-2 0.1-3-0.2-0.7-0.3-0.8-1.4 0-1.6q0.5-0.2 1-0.3c0.3-0.3 0.7-0.4 1.1-0.1q0 0 0.1 0 0.2 0 0.4 0.1c-1.2-13.2-0.4-27.1 3.5-39.8-9.2 11.8-14 27.1-12.9 42.8q0.3 0 0.7 0.1c0.4 0.1 0.6 0.4 0.6 0.8q0.2 0 0.5 0c0.9 0.2 0.7 1.6-0.2 1.6-1.2 0.1-2.5 0.1-3.7 0.1q-0.3 0-0.5-0.2c-0.6-0.2-0.8-1-0.4-1.4q0.2-0.4 0.6-0.6c0.3-0.1 0.7-0.2 1.2-0.3-2.1-18 4.2-35.4 15.9-48.1q0.1-0.3 0.2-0.6c1.8-4.4 4.6-8.9 8.2-12.3-4.3 0.5-8.6 1.7-12.5 3.6-9.8 4.8-16.5 13.7-22.5 22.4q0.5 0.6 0.8 1.3 0.1 0.3 0 0.5 0 0.1 0 0.1c0.2 0.3 0 0.7-0.4 0.7-0.7 0.1-1.4-0.2-2-0.6-1.1-0.1-2.1-1-2.5-2-0.2-0.4 0.2-1 0.6-1.1 0.9-0.1 1.8 0 2.5 0.4 6.2-9.5 12.5-19.1 23.1-24.2 5.1-2.4 10.7-3.7 16.3-3.9 4.2-2.8 9.1-4.2 14.3-3 1.5-0.7 3.2-1.1 5.1-0.8q0.4 0 0.6 0.3 0.4 0.1 0.7 0.5l0.2 0.2q0.3 0 0.6 0.1c4.5-2 9.8-2.5 14.4-1.8q2.3 0.3 4.5 1.1c7.4-0.3 14.7 1.5 21.3 6.6 11.6 9.1 15.8 23.7 17.4 37.8q0.7 0 1.4 0.3c0.8 0.4 0.4 1.5-0.4 1.6zm-80.2-40.4c-2.9 2.4-5.4 5.5-7.4 9 3.8-3.4 8.1-6.4 12.7-8.8q-2.6-0.3-5.3-0.2z"/>
		</g>
		<g id="Layer">
			<path id="Layer" fill-rule="evenodd" class="s1" d="m0.9 209q0.6-0.3 1.4-0.4c2.2-14 6.9-28.4 19-37 6.7-4.8 14.1-6.3 21.5-5.7q2.2-0.6 4.6-0.9c4.6-0.5 9.9 0.2 14.3 2.4q0.3 0 0.6 0l0.2-0.3q0.2-0.4 0.7-0.5 0.2-0.2 0.6-0.2c1.9-0.2 3.6 0.3 5.1 1.1 5.3-1.1 10 0.5 14.1 3.5 5.6 0.4 11.1 2 16.1 4.6 10.4 5.5 16.3 15.4 22.1 25.1 0.7-0.3 1.6-0.5 2.5-0.2 0.5 0.1 0.8 0.7 0.6 1.1-0.5 1-1.5 1.8-2.6 1.9-0.6 0.4-1.3 0.6-2 0.5-0.4-0.1-0.6-0.4-0.4-0.8q0 0 0 0-0.1-0.2 0-0.5 0.4-0.8 0.9-1.3c-5.6-9-12-18.1-21.5-23.3-3.9-2.1-8.1-3.5-12.4-4.2 3.4 3.6 6.1 8.2 7.7 12.7q0.1 0.3 0.2 0.6c11.2 13.2 16.7 30.8 13.9 48.7 0.4 0.1 0.8 0.3 1.2 0.4q0.4 0.2 0.5 0.5c0.4 0.5 0.2 1.3-0.5 1.4q-0.1 0.2-0.5 0.2c-1.2 0-2.4-0.1-3.6-0.2-0.9 0-1.1-1.5-0.1-1.6q0.2 0 0.4 0c0-0.4 0.2-0.7 0.7-0.8q0.3 0 0.7 0c1.7-15.7-2.4-31.1-11.2-43.4 3.4 12.9 3.6 26.8 1.9 39.9q0.2 0 0.4 0 0.1 0 0.1 0c0.4-0.3 0.8-0.1 1.1 0.2q0.5 0.1 1 0.2c0.8 0.3 0.6 1.4-0.1 1.6-1 0.3-2.1 0.4-3.1 0.1q0 0 0 0c-0.2 0.1-0.4 0.1-0.6 0q-0.3-0.1-0.6-0.2c-0.8-0.3-0.7-1.5 0.2-1.7q0.2 0 0.4-0.1c1.6-13.5 0.7-27.5-2.9-40.7q-0.5-1.8-1.1-3.6c-4.9-5.7-10.9-10.5-17.8-14.1q0.4 0.7 0.7 1.4c1.2 2.9 2.1 5.8 2.9 8.8 2.5 4.2 4.5 8.6 6.1 13.2 4.6 13.6 4.6 28.2 2.9 42.3 0.4 0 0.8 0.1 1.1 0.3 0.7 0.3 0.9 1.2 0.1 1.6q-0.1 0.1-0.2 0.2c-0.3 0.2-0.7 0.4-1.1 0.3q-1.2 0.3-2.4 0.1c-0.7-0.1-1.2-1-0.5-1.6q0 0 0 0 0.2-0.3 0.6-0.4 0 0 0.1 0 0.4-0.3 1-0.4c1.3-12.5 1.1-25.3-2.4-37.6q-1.5-5.3-3.9-10.4 0.4 2.5 0.6 4.9c1.3 15.3-1 30.5-3.3 45.5 0.7 0.1 1.3 0.3 1.5 0.9 0.8 0.2 1.1 1.6 0.1 1.7q-0.5 0.1-1 0.1 0 0-0.1 0c-0.5 0.3-1.1 0.1-1.6-0.1q-0.7-0.2-1.4-0.4-0.4 0-0.8 0c-0.9-0.1-1-1-0.5-1.5 0.1-0.2 0.3-0.4 0.5-0.4 0.4-0.1 1.1-0.2 1.8-0.3 1.7-12.8 3.2-25.6 2.8-38.6-0.2-6.4-1-12.9-2.7-19.2-1.3-2.2-3.1-4.9-5.1-7q0 0.2 0.1 0.4c1.1 5.6 0.8 11.4 0.4 17-0.9 13.2-4.3 25.9-9.4 38q0.2 0.1 0.4 0.1 1.2 0 2.4 0.4c0.9 0.4 0.7 1.4-0.1 1.7q-0.5 0.2-1.1 0.2-0.2 0.2-0.6 0.2-0.3 0-0.6 0c-1.1 0.3-2.6-0.2-3.6-0.5-0.8-0.2-0.8-1.4-0.1-1.8q0.9-0.4 1.8-0.5c4.2-10.6 6.8-21.8 8-33.2 0.5-5.2 0.8-10.5 0.6-15.8-0.1-2.4-0.4-4.8-1-7.1q-1.6-0.2-3-0.1c-1.8 4.2-3.8 8.4-5.2 12.8-2.2 6.7-3.9 13.5-5.1 20.5-2.1 12.4-4 27 2.9 38.2 0.7-0.3 1.4-0.5 2-0.5 0.9 0 1 1.1 0.5 1.6-1.2 1.3-2.8 2.1-4.5 2.2-1.1 0.1-1.5-1.1-0.6-1.7q0.7-0.4 1.3-0.8c-7.2-11.1-6.2-25.5-4.3-38 1.2-7.4 2.9-14.7 5.2-21.8 1.2-3.8 2.5-7.8 4.2-11.6-2.8 1-5.2 2.9-7.3 5.3-3.4 5.2-5.9 10.9-7.7 16.9-4.5 14.6-4.8 30.1-4.8 45.3q0.1 0 0.1 0 1 0 2 0.2c0.9 0.3 0.6 1.5-0.1 1.7-1.7 0.5-3.5 0.5-5.1 0-0.7-0.1-0.8-1.3-0.1-1.5q0.9-0.4 1.9-0.5c-0.3-14.7-0.6-29.9 3.3-44.3-5.5 10.7-10 21.9-11.2 33.9q0.4 0.1 0.8 0.2c0.6 0.1 0.7 0.9 0.3 1.3-1.5 1.4-4 1.3-5.4-0.3-0.4-0.6 0-1.3 0.7-1.4q1 0 2.1 0.1c1.1-13.7 5.9-26.5 12.3-38.5 2.2-4.1 5.1-9.9 8.9-14.6q0.5-0.8 1-1.5 2.6-3.7 5.7-6.8-2.2-0.9-4.4-1.7-1.6 0.5-3.1 1.2c-6 2.7-10 7.8-13.1 13.4-6.8 12.2-9.9 26.2-8.7 40.1q0.3 0 0.6 0.1 0.1 0.1 0.3 0.2 0 0 0.1 0c0.7 0.1 1.1 1.3 0.3 1.6q-0.6 0.3-1.2 0.4-0.3 0.2-0.7 0.2-1.2 0.2-2.5 0.2c-0.8-0.1-1-1-0.5-1.5 0.5-0.6 1.3-1 2.1-1.2-1.4-14.9 1.5-30.3 9.2-43.3 3.2-5.5 7.6-10.1 13.3-12.6q-3.5-1-7-1.4c-6.7 2.3-11.2 7.7-14.9 13.8-8.9 14.2-16.1 30.5-14.8 47.6q0.8 0 1.4 0.1 0.1 0 0.2 0 0.3 0 0.5 0.2 0 0 0 0c0.7 0.3 0.6 1.1 0.1 1.5-1.4 0.8-3.2 1-4.7 0.4-0.7-0.3-0.7-1.3 0.1-1.5q0 0 0.1 0 0.3-0.4 0.8-0.5c-1.7-18.6 5.9-37.4 16.2-52.5 2.6-3.7 5.7-6.9 9.4-9.2-5.3 0.4-10.5 2.1-15.3 5.7-11 8.2-16 21.6-18.4 34.7 0.8 0.2 1.5 0.7 2 1.4 0.3 0.4 0.3 1-0.2 1.2-1.6 0.6-3.2 0.3-4.4-0.8q0 0 0 0c-0.8-0.2-1.1-1.3-0.3-1.6zm76.8-35.5c4.5 2.6 8.7 5.7 12.3 9.3-1.8-3.5-4.2-6.8-7-9.3q-2.7-0.2-5.3 0z"/>
		</g>
		<g id="Layer">
			<path id="Layer" class="s2" d="m7.2-3c10.8 4.1 19.2 13.7 26.3 22.5 7.1 9 13.2 18.8 18 29.2 10.3 22.2 15.2 46.4 15.7 70.8 0.2 12-0.8 24.1-2.5 35.9-2.5 0.1-5.8 2.9-7.1 4-1.6 1.4-4.5 5-3.9 7.4 0.1 0.6 0.4 1.1 0.9 1.4q0.4 0.4 0.9 0.3c3.7-1.8 16.2 0.7 18.9 2.5 0.2 0.2 0.5-0.1 0.7-0.2 0.3-0.1 0.5-0.3 0.5-0.6 1.2-4.8-2.5-12-7.1-14.4 6.9-47.5-0.6-98-31-136.4-7.8-9.8-17.1-20.3-29.3-24.6-1.4-0.5-2.5 1.6-1 2.2z"/>
		</g>
	</g>
</svg>