<svg version="1.2" xmlns="http://www.w3.org/2000/svg" viewBox="0 0 1067 500" width="1067" height="500">
	<title>background2-svg</title>
	<style>
		.s0 { fill: #fbfec7 } 
		.s1 { fill: #242e6b } 
	</style>
	<g id="Layer">
		<g id="Layer">
			<path id="Layer" class="s0" d="m882.2 77.2c-5.5 1.5-10.5-1.1-14.9-4.2-4.3-3-14-11.2-16.2-1.1-2 9.4 10.3 17.6 15.7 23.8 6.1 7 12 14.8 16.3 23.1 6.8 13.3 5.9 30.2-5.1 37.8-22 15-36.5-6.2-40.4-12q-0.7-1-1.6-1.9c-1.8-2.1-2.5-2.3-4.5 0.3-3.2 4.3-1.6 10.1-0.2 14.7 2.1 6.9 3.6 13.4 3 20.6-1.2 13.2-8.3 25.9-18.9 33.9-5.3 4-13.2 8.5-20.1 7.1-6.7-1.4-10.1-8.2-10.4-14.5-0.4-8.5 4.9-15 8.6-22.2 4.1-8 4-16.4-0.7-23.5-11.3 17.7-19.9 38.5-38.7 49.7-14.9 8.7-33.9 8.8-45.1-5.9-4.3-5.7-6.7-13.3-5-20.5 2.5-9.7 11.3-15.3 19.5-20 11.3-6.4 22.7-12.7 34-19.1q8.5-4.8 17-9.6c5.2-2.9 11.9-6 14.5-11.7 1.1-2.5 1.5-6.2-0.1-8.5-1.9-2.8-5.2-2.9-8.3-2.6-5.9 0.4-11.7 2.4-17.2 4.4-10 3.7-20 8.1-30.7 8.3-8.9 0.1-17.5-2.9-23.3-9.9-5.4-6.5-6.4-15.4-2-22.7 4.5-7.5 12.9-12 20.9-14.8 10.6-3.8 21.9-6.1 33.1-6.9 5.6-0.4 11.4 0.2 16.9-0.9 2.9-0.5 5.9-1.6 7.3-4.4 1.7-3.2 1.1-7.5-3.2-7.3-5 0.2-9.8 2.4-14.9 2.4-4.7 0-9.2-1-13.1-3.7-8.2-5.9-8.1-16.4-3.1-24.4 5.8-9.2 16.6-14 27-15.8 12.1-2 24.3 0.4 36.5 0.1 11.9-0.3 23.3-3.8 32.7-10.9 1.6-1.3 2.9-2.9 4.2-4.5 0.5-0.5 1.1-0.9 1.8-1 1.2-0.3 2.5 0 3.3 1.2q0.1 0.2 0.2 0.4c4.4 9.1 9.7 17.6 16.1 25.3 5.8 7.1 13.1 13.1 17.7 21.1 5.6 9.9 4.6 26.8-8.6 30.3z"/>
		</g>
		<g id="Layer">
			<path id="Layer" class="s1" d="m863.8 47.9c-6.3-5-11.9-11-15.9-17.9-3.3 9.1-7.2 18-11.3 26.9-10.3 22.4-20.7 45-33.5 66 5.8 13 9.6 26.3 11.8 40.3 0.1 0.9-1.3 1.4-1.5 0.4-2.4-13-6.6-25.8-12-37.9-5.2 8.3-10.7 16.4-16.8 24.1-12.1 15.1-26.4 28.4-43 38.3-0.9 0.5-1.8-0.9-0.9-1.4 25.6-15.3 44.6-38.2 59.9-63.4 0-0.4 0.2-0.8 0.6-1q4.3-7.2 8.2-14.6c4-7.4 7.7-14.9 11.3-22.5-6 2.2-12.3 2.9-18.7 3.3-8.7 0.6-17.5 1-26.2 0.9-0.5 0-0.7-0.9-0.2-0.9 7.3-1.1 14.5-1.6 21.8-2.2 8.4-0.7 16.8-1 24.7-4.5q0.1-0.1 0.3-0.1 4.9-10.5 9.6-21.1c8.5-19.2 16.5-38.4 20.9-59q0.3-1.3 0.6-2.7c1.2-0.3 2.5 0 3.3 1.2q0 0 0 0c-2 9-4.5 17.7-7.5 26.2 4.1 7.7 8.9 14.7 15.5 20.5 0.8 0.7-0.3 1.7-1 1.1z"/>
		</g>
		<g id="Layer">
			<path id="Layer" class="s0" d="m285.5 32.6c-2.5 5.1-7.8 7.2-13 8.4-5.1 1.3-17.7 3.1-11.6 11.4 5.8 7.8 20.1 4 28.3 4 9.3 0 19 0.8 28.1 3.1 14.5 3.6 26.6 15.4 25 28.7-3.2 26.4-28.7 23.3-35.7 22.5q-1.2-0.2-2.5-0.2c-2.7 0-3.3 0.5-2.6 3.6 1.1 5.3 6.4 7.9 10.9 9.9 6.5 2.9 12.4 6.1 17.3 11.4 9.2 9.6 14 23.3 13 36.5-0.5 6.7-2.3 15.5-8 19.8-5.4 4.1-12.7 2.2-17.6-1.8-6.7-5.3-8.1-13.6-11.1-21.1-3.2-8.3-9.7-13.8-18.1-15 5.9 20.2 15.8 40.4 11.7 61.9-3.2 17-15.7 31.3-34.1 30-7.2-0.6-14.5-3.8-18.7-9.8-5.7-8.3-4-18.6-2.1-27.8 2.6-12.8 5.4-25.5 8.1-38.2q2-9.6 4-19.1c1.2-5.8 3.4-12.9 0.8-18.6-1.1-2.5-3.7-5.2-6.5-5.6-3.4-0.4-5.6 2-7.4 4.5-3.6 4.8-5.9 10.4-8.1 15.9-3.8 9.9-7.1 20.3-14 28.5-5.8 6.8-13.8 11.2-22.8 11-8.5-0.3-15.8-5.4-18.4-13.5-2.7-8.3-0.5-17.6 2.7-25.5 4.1-10.5 9.8-20.4 16.7-29.4 3.3-4.4 7.6-8.4 10.5-13.2 1.5-2.6 2.6-5.6 1.5-8.5-1.3-3.4-4.9-5.7-7.6-2.3-3.2 3.9-4.7 8.9-8.1 12.7-3 3.5-6.8 6.3-11.4 7.3-9.9 2.4-17.6-4.7-20.3-13.7-3.2-10.5 0.4-21.8 5.9-30.7 6.5-10.4 16.4-18 24.2-27.3 7.7-9.2 12.5-20.1 13.4-31.8 0.1-2.1-0.3-4.1-0.6-6.2-0.1-0.6 0.1-1.3 0.4-2 0.6-1 1.7-1.8 3.1-1.6q0.2 0 0.5 0.1c9.7 2.7 19.6 4.3 29.6 4.6 9.1 0.3 18.5-1.2 27.5 0.7 11.1 2.3 23.2 14.2 17.1 26.4z"/>
		</g>
		<g id="Layer">
			<path id="Layer" class="s1" d="m251.3 27.1c-7.9 1.4-16.1 1.7-23.9 0 4.6 8.6 8.8 17.4 12.8 26.4 9.9 22.5 20 45.2 27.4 68.7 13.6 4.2 26 10.1 38 17.7 0.8 0.6 0.2 1.9-0.7 1.4-11.4-6.7-23.7-12.1-36.4-16 2.9 9.4 5.3 18.9 7 28.6 3.4 19 3.9 38.5 0.4 57.5-0.2 1.1-1.8 0.8-1.6-0.3 5.4-29.2 0.7-58.7-8.1-86.7-0.3-0.3-0.4-0.8-0.4-1.2q-2.5-7.9-5.5-15.7c-2.9-7.9-6.1-15.7-9.4-23.4-2.3 6-5.9 11.1-9.9 16.2-5.3 7-10.8 13.8-16.7 20.3-0.3 0.3-1-0.1-0.7-0.5 4-6.1 8.3-12 12.7-17.8 5.1-6.8 10.4-13.3 12.9-21.5q0.1-0.2 0.1-0.3c-3-7.1-6.2-14.1-9.5-21.1-8.7-19.1-17.8-37.8-30.4-54.7q-0.8-1.1-1.7-2.3c0.6-1 1.7-1.8 3.1-1.6q0 0 0 0c5.5 7.4 10.3 15 14.7 22.9 8.5 2 17 3 25.7 1.9 1-0.1 1.1 1.3 0.1 1.5z"/>
		</g>
	</g>
</svg>