<svg version="1.2" xmlns="http://www.w3.org/2000/svg" viewBox="0 0 743 476" width="743" height="476">
	<title>background5-svg</title>
	<defs>
		<clipPath clipPathUnits="userSpaceOnUse" id="cp1">
			<path d="m742.98 476h-742.98v-475.08h742.98z"/>
		</clipPath>
		<clipPath clipPathUnits="userSpaceOnUse" id="cp2">
			<path d="m746.24 471h-749.24v-470.25h749.24z"/>
		</clipPath>
		<linearGradient id="g1" x1="226.2" y1="370.1" x2="226.2" y2="1.1" gradientUnits="userSpaceOnUse">
			<stop offset="0" stop-color="#35447a"/>
			<stop offset="1" stop-color="#4961d6"/>
		</linearGradient>
		<linearGradient id="g2" x1="778.7" y1="428" x2="657.9" y2="79.3" gradientUnits="userSpaceOnUse">
			<stop offset="0" stop-color="#35447a"/>
			<stop offset="1" stop-color="#4961d6"/>
		</linearGradient>
	</defs>
	<style>
		.s0 { fill: none } 
		.s1 { fill: #131a35 } 
		.s2 { fill: url(#g1) } 
		.s3 { fill: #5476ef } 
		.s4 { fill: url(#g2) } 
	</style>
	<g id="Artboard1">
		<path id="Layer" class="s0" d="m743 476h-743v-475.1h743z"/>
		<g id="Clip-Path" clip-path="url(#cp1)">
			<g id="Layer">
				<g id="Layer">
					<g id="Clip-Path" clip-path="url(#cp2)">
						<g id="Layer">
							<g id="Layer">
								<path id="Layer" class="s1" d="m399 91.1q-0.4 3.1-1.1 6.5c-2.1-2.1-4.2-4.1-6.6-6-2.9-2.3-6.2-4.4-9.9-5-0.3 0-0.5 0.3-0.4 0.5 3.6 9.9 9 19.1 12.7 28.9-6.7 25.7-17.1 59.4-19 97.3-0.3-0.4-9.8-12.8-20.3-32.5q0-0.3 0-0.6c0.5-6.6 1.5-13.1 1.8-19.6 0-0.4-0.4-0.5-0.7-0.3-2.9 2.2-5.3 5.3-7.1 8.6-10.2-21.3-19.9-48.5-21.7-77.4 4.7-8.1 10.5-15.8 13.8-24.6 0.1-0.2-0.2-0.5-0.4-0.5-3.8 1.2-6.8 3.7-9.6 6.3-1.3 1.2-2.6 2.5-4 3.7q0.2-6.9 1.2-13.9c7-11.4 11.6-16.5 23.6-27.8 0.3-0.3-8.1 1-17.7 8.5-0.7 0.6-1.4 1-2.1 1.6 5-17.4 14.1-34.5 28.8-50.5 40.5 37.4 42 70.2 38.7 96.8z"/>
							</g>
							<g id="Layer">
								<path id="Layer" class="s1" d="m92.2-4.5c8.6 10.6 13.7 21.7 16.2 32.8-0.4-0.4-0.9-0.7-1.3-1.1-5.7-5-10.9-6.2-10.7-6 7.1 7.6 9.8 10.9 13.7 18.3q0.4 4.5 0.2 8.8c-0.8-0.8-1.5-1.7-2.3-2.5-1.7-1.7-3.5-3.4-5.8-4.3-0.2 0-0.4 0.2-0.3 0.3 1.8 5.7 5.1 10.7 7.7 16-2.2 18-9.3 34.7-16.5 47.7-1-2.1-2.4-4.1-4.1-5.7-0.2-0.1-0.4 0-0.4 0.2-0.1 4.1 0.2 8.2 0.3 12.4q0 0.2 0 0.4c-7.3 11.9-13.8 19.3-14 19.5v0.1c0.3-23.9-5-45.4-8.2-61.8 2.7-6 6.4-11.6 9-17.6 0.1-0.2 0-0.4-0.2-0.4-2.4 0.3-4.5 1.5-6.4 2.8-1.5 1.1-3 2.3-4.4 3.5q-0.3-2.2-0.4-4.1c-1.1-16.8 1.1-37.4 27.9-59.3z"/>
							</g>
							<g id="Layer">
								<path id="Layer" class="s1" d="m646.5 44.5q0.2 1.9 0.4 4.1c-1.6-0.9-3.3-1.8-5-2.6-2.1-1-4.4-1.8-6.8-1.6-0.1 0-0.2 0.2-0.2 0.4 3.7 5.5 8.4 10.2 12.1 15.7-0.2 16.7-1.4 38.8 3.1 62.2-0.2-0.2-7.9-6.3-17.3-16.7q0-0.2 0-0.4c-0.7-4.1-1.1-8.2-1.9-12.3-0.1-0.2-0.4-0.2-0.5-0.1-1.4 1.9-2.4 4.1-3 6.4-9.5-11.5-19.5-26.6-24.9-43.9 1.6-5.7 4-11.3 4.7-17.1 0-0.2-0.2-0.4-0.3-0.3-2.2 1.3-3.6 3.3-5 5.3-0.6 0.9-1.2 1.9-1.8 2.9q-0.9-4.3-1.4-8.7c2.6-8 4.6-11.8 10.2-20.5 0.1-0.2-4.8 1.8-9.5 7.8-0.3 0.5-0.7 0.9-1 1.3 0.4-11.3 3.4-23.2 9.9-35.2 30.4 16.8 36.2 36.6 38.2 53.3z"/>
							</g>
							<g id="Layer">
								<path id="Layer" class="s2" d="m185.5 170.5c2.2-2.9 4.4-5.5 6.3-8.5 5.9-8.5 13.3-17.3 14-28l-0.4-0.4c-3.7-0.7-7.7 1.1-11 3-2.6 1.4-5.6 3.3-8.2 5.5-0.3-29.9-2.9-60.2-9.9-88.9 1.5-4.5 2.9-8.5 5.1-12.6 3-6.3 7.1-12.2 11.5-17.3 3.7-4.1 8.5-7.4 10.3-12.6 0-0.3-0.4-0.7-0.4-0.7-12.9 0.4-25 5.9-36.5 11.8-2.6-7-5.9-14-9.2-20.7h138.4c0.7 1.9 1.8 4.1 2.9 6.3 0.4 7-0.4 18.1-1.8 32.1-5.2 0-11.1 0.8-15.9 2.6-0.4 0-0.7 0.4-0.4 0.7 3 7 8.5 12.2 13 18.1-0.4 2.6-0.8 5.2-1.5 8.1-5.6-6.6-11.8-12.5-19.9-14.4-0.4 0-0.8 0.4-0.8 0.8 2.6 14.4 10 28 14 42-11 43.2-31.3 96-65.3 147.3-2.6-6.3-5.9-12.9-11.4-16.6-0.4 0-0.8 0-0.8 0.3-4.8 12.6-4 26.6-4.8 39.9q-17.1 22.7-38.7 44.3c0 0 18.1-65 21.4-142.1z"/>
							</g>
							<g id="Layer">
								<path id="Layer" class="s3" d="m208 195.7c-7.1 27.7-16.3 55-27.2 81.5-0.7 1.7-3.3 0.8-2.7-0.9 35.9-94.2 50.4-197.4 41.5-297.8-2.5-28.3-7.2-56.2-13.1-84-0.7-3.7 4.9-5 5.8-1.3 23.2 98.6 20.9 204.5-4.3 302.5z"/>
							</g>
							<g id="Layer">
								<path id="Layer" class="s4" d="m665.9 300.5c3.1-2.1 6-3.8 8.8-6 8.3-6.1 18.2-12 22.4-21.9l-0.2-0.5c-3.3-1.9-7.7-1.5-11.5-0.8-2.9 0.5-6.3 1.3-9.5 2.6 9.5-28.4 16.9-57.8 19.7-87.3 2.5-3.9 5.6-7.1 9-10.2 4.9-5 7.7-6.3 13.6-9.8 4.8-2.6 13.7-9.3 13.4-9.4-11.9-4.1-22.4-5.4-35.1-3.5-0.3-9.5-1.2-19.2-3-28.8 17.7-14.9 37.1-22.3 53.3-25.3l0.3 213.4c-20.2 23.4-44.4 47.1-73 68.8-0.4-6.8-1.3-14.2-5.4-19.5-0.3-0.1-0.7-0.2-0.8 0.2-8.6 10.2-12.5 23.7-17.6 36q-23.6 15.9-51.1 29.2c0 0 38.4-55.5 66.7-127.2z"/>
							</g>
							<g id="Layer">
								<path id="Layer" class="s3" d="m679 331.6c-15.8 23.9-33.5 46.6-52.4 68.1-1.2 1.4-3.4-0.3-2.2-1.7 64.6-77.3 112.2-170 136.6-267.8 6.9-27.6 11.6-55.5 15.1-83.7 0.5-3.8 6.3-3.1 5.9 0.7-10.3 100.8-47.2 200.1-103 284.4z"/>
							</g>
						</g>
					</g>
				</g>
			</g>
		</g>
	</g>
</svg>