<svg version="1.2" xmlns="http://www.w3.org/2000/svg" viewBox="0 0 924 475" width="924" height="475">
	<title>background1-svg</title>
	<defs>
		<clipPath clipPathUnits="userSpaceOnUse" id="cp1">
			<path d="m924 475h-923.51v-474.19h923.51z"/>
		</clipPath>
	</defs>
	<style>
		.s0 { fill: none } 
		.s1 { fill: #f9aa4d } 
	</style>
	<g id="Artboard1">
		<path id="Layer" class="s0" d="m924 475h-923.5v-474.2h923.5z"/>
		<g id="Clip-Path" clip-path="url(#cp1)">
			<g id="Layer">
				<g id="Layer">
					<g id="Layer">
						<path id="Layer" class="s1" d="m138.8 254.6c-32.6-19.7-61-45.5-83.4-76.2-24.1-33.1-40.8-71.3-48.8-111.4-4.7-23.3-6.5-47.2-5.3-71 0.2-2.7 4.3-2.7 4.2 0-4.1 80.8 27 160.5 84.3 217.4 15.1 15 31.9 28.4 49.9 39.6 1 0.6 0.1 2.2-0.9 1.6z"/>
					</g>
					<g id="Layer">
						<path id="Layer" class="s1" d="m198.9 302.3c0 0-57-0.7-62-50.6 48.5-4.9 62 50.6 62 50.6z"/>
					</g>
					<g id="Layer">
						<path id="Layer" class="s1" d="m113.9 321.9c0 0-30.9-47.9 8-79.6 30.8 37.7-8 79.6-8 79.6z"/>
					</g>
					<g id="Layer">
						<path id="Layer" class="s1" d="m196.9 212.5c0 0-54.6-16.2-74.2 30 44.8 19 74.2-30 74.2-30z"/>
					</g>
					<g id="Layer">
						<path id="Layer" class="s1" d="m165 186.5c0 0-54.6-16.3-74.2 29.9 44.8 19.1 74.2-29.9 74.2-29.9z"/>
					</g>
					<g id="Layer">
						<path id="Layer" class="s1" d="m138.3 163.3c0 0-52.7-21.5-76.8 22.5 42.8 23.4 76.8-22.5 76.8-22.5z"/>
					</g>
					<g id="Layer">
						<path id="Layer" class="s1" d="m773 253.8c18-11.3 34.8-24.6 49.9-39.6 57.3-56.9 88.4-136.7 84.3-217.5-0.1-2.6 4.1-2.6 4.2 0 1.2 23.8-0.6 47.7-5.2 71.1-8 40.1-24.8 78.3-48.8 111.3-22.5 30.8-50.9 56.6-83.5 76.2-1 0.6-1.9-0.9-0.9-1.5z"/>
					</g>
					<g id="Layer">
						<path id="Layer" class="s1" d="m713.9 303.1c0 0 56.9-0.7 61.9-50.7-48.5-4.8-61.9 50.7-61.9 50.7z"/>
					</g>
					<g id="Layer">
						<path id="Layer" class="s1" d="m798.8 322.7c0 0 30.9-47.9-7.9-79.7-30.9 37.7 7.9 79.7 7.9 79.7z"/>
					</g>
					<g id="Layer">
						<path id="Layer" class="s1" d="m830.5 296.9c0 0 30.9-47.8-7.9-79.6-30.9 37.7 7.9 79.6 7.9 79.6z"/>
					</g>
					<g id="Layer">
						<path id="Layer" class="s1" d="m859.7 264.7c0 0 30.9-47.8-7.9-79.6-30.9 37.7 7.9 79.6 7.9 79.6z"/>
					</g>
					<g id="Layer">
						<path id="Layer" class="s1" d="m892.3 227.3c0 0 25.3-51-16.9-78.3-26.4 41 16.9 78.3 16.9 78.3z"/>
					</g>
					<g id="Layer">
						<path id="Layer" class="s1" d="m922.6 180.1c0 0 17.4-54.2-28.4-74.8-20 44.4 28.4 74.8 28.4 74.8z"/>
					</g>
					<g id="Layer">
						<path id="Layer" class="s1" d="m715.8 213.3c0 0 54.6-16.3 74.2 29.9-44.8 19.1-74.2-29.9-74.2-29.9z"/>
					</g>
					<g id="Layer">
						<path id="Layer" class="s1" d="m747.7 187.3c0 0 54.6-16.3 74.3 29.9-44.9 19.1-74.3-29.9-74.3-29.9z"/>
					</g>
					<g id="Layer">
						<path id="Layer" class="s1" d="m774.4 164.1c0 0 52.8-21.5 76.8 22.5-42.8 23.4-76.8-22.5-76.8-22.5z"/>
					</g>
					<g id="Layer">
						<path id="Layer" class="s1" d="m795.3 132.4c0 0 51-25.3 78.2 16.8-40.9 26.5-78.2-16.8-78.2-16.8z"/>
					</g>
					<g id="Layer">
						<path id="Layer" class="s1" d="m814.3 99.4c0 0 47.4-31.6 79.8 6.7-37.2 31.4-79.8-6.7-79.8-6.7z"/>
					</g>
					<g id="Layer">
						<path id="Layer" class="s1" d="m826.3 66.6c0 0 42.1-38.3 79.8-5.1-32.1 36.6-79.8 5.1-79.8 5.1z"/>
					</g>
					<g id="Layer">
						<path id="Layer" class="s1" d="m555.5 73.2c2.8-21.1 3.1-42.5 1.2-63.7-7.3-80.5-48.9-155.2-113.8-203.6-2.2-1.6 0.5-4.8 2.6-3.2 19.1 14.3 36.4 30.9 51.4 49.4 25.9 31.7 44.7 68.9 54.8 108.5 9.4 36.9 11.2 75.3 5.5 112.9-0.1 1.1-1.9 0.8-1.7-0.3z"/>
					</g>
					<g id="Layer">
						<path id="Layer" class="s1" d="m555.8 150.2c0 0 35.7-44.4 0.4-80-34.6 34.2-0.4 80-0.4 80z"/>
					</g>
					<g id="Layer">
						<path id="Layer" class="s1" d="m625 97.2c0 0-17.2-54.3-66.5-44.6 9.4 47.8 66.5 44.6 66.5 44.6z"/>
					</g>
					<g id="Layer">
						<path id="Layer" class="s1" d="m625.3 56.3c0 0-17.2-54.3-66.4-44.6 9.4 47.8 66.4 44.6 66.4 44.6z"/>
					</g>
					<g id="Layer">
						<path id="Layer" class="s1" d="m487.8 91.5c0 0 22.2-52.5 70.4-38.2-13.9 46.7-70.4 38.2-70.4 38.2z"/>
					</g>
					<g id="Layer">
						<path id="Layer" class="s1" d="m488.1 50.3c0 0 22.2-52.5 70.3-38.2-13.8 46.7-70.3 38.2-70.3 38.2z"/>
					</g>
				</g>
			</g>
		</g>
	</g>
</svg>