<svg version="1.2" xmlns="http://www.w3.org/2000/svg" viewBox="0 0 2848 1533" width="2848" height="1533">
	<title>background4-svg</title>
	<defs>
		<clipPath clipPathUnits="userSpaceOnUse" id="cp1">
			<path d="m2848 1533h-2847.02v-1532.23h2847.02z"/>
		</clipPath>
	</defs>
	<style>
		.s0 { fill: none } 
		.s1 { fill: #fc8d93 } 
		.s2 { fill: #fe6869 } 
	</style>
	<g id="Artboard1">
		<path id="Layer" class="s0" d="m2848 1533h-2847v-1532.2h2847z"/>
		<g id="Clip-Path" clip-path="url(#cp1)">
			<g id="Layer">
				<g id="Layer">
					<g id="Layer">
						<path id="Layer" class="s1" d="m777-252.4c42.6 121.7 52.3 236.3 39.4 342.5-2.7-4.5-5.6-8.8-8.1-13.4-34.5-63.1-77.2-89.7-76.4-87.7 39 89.8 52.3 128.2 63.9 206.7-7.3 26.8-16 53.1-25.9 78.7-4.7-9.8-8.7-20.1-13-29.7-9.3-20.8-20-41.6-37.8-56.4-1.3-1.1-3.6-0.1-3.6 1.6-2.4 55.8 11.3 111.1 18 166.5-77.3 152.9-193.4 278.6-298.6 371.2-2.3-22.4-8.3-44.7-18.8-63.9-0.9-1.6-3.5-1.9-4.3 0.1-13.9 36.4-23.8 74.3-36.3 111.2-0.4 1.2-0.8 2.3-1.2 3.5-103.2 82.6-184.1 127.9-186.6 129.4h-0.1c78.2-210.8 100.2-418.5 123.7-574.6 43-45 93.8-82.4 136.5-127.8 1-1 0.4-3.2-1-3.6-21.8-5.6-44.7-1.5-66 4.2-17 4.6-33.6 10.6-50 17.1 3.1-13.4 6.2-26.1 9.6-38 43.9-152.8 128.4-328.2 436.6-437.6z"/>
					</g>
					<g id="Layer">
						<path id="Layer" class="s2" d="m777-252.4c42.6 121.7 52.3 236.3 39.4 342.5-2.7-4.5-5.6-8.8-8.1-13.4-34.5-63.1-77.2-89.7-76.4-87.7 39 89.8 52.3 128.2 63.9 206.7-7.3 26.8-16 53.1-25.9 78.7-4.7-9.8-8.7-20.1-13-29.7-9.3-20.8-20-41.6-37.8-56.4-1.3-1.1-3.6-0.1-3.6 1.6-2.4 55.8 11.3 111.1 18 166.5-77.3 152.9-193.4 278.6-298.6 371.2-2.3-22.4-8.3-44.7-18.8-63.9-0.9-1.6-3.5-1.9-4.3 0.1-13.9 36.4-23.8 74.3-36.3 111.2-0.4 1.2-0.8 2.3-1.2 3.5-103.2 82.6-184.1 127.9-186.6 129.4 3.9-3.9 281.3-274.7 589.3-1160.3z"/>
					</g>
					<g id="Layer">
						<path id="Layer" class="s2" d="m278.5 681.4c1.6-9 4.8-19.6 10-27.3 5.4-8.1 18.7-3.1 16 6.8-2.6 9.7-8.8 19.2-14.9 27-4.6 5.7-12.2-0.7-11.1-6.5z"/>
					</g>
					<g id="Layer">
						<path id="Layer" class="s2" d="m411.8 358.5c1.8-7.8 2.9-16.6 6.6-23.9 4.7-9.2 18.2-2.5 16 6.8-1.8 7.6-6.8 15.3-10.5 22.2-3.6 7-13.7 2-12.1-5.1z"/>
					</g>
					<g id="Layer">
						<path id="Layer" class="s2" d="m439.9 32.1c0.9-4.8 2.7-9.4 4.1-14.1 1.5-5.3 1.8-11 7.3-13.7 3.7-1.8 8.6-1.1 10.7 2.8 3.5 6.3 0.3 11.6-2.8 17.3-2.7 4.7-5.7 9.6-10 13.1-4.4 3.6-10.3 0.2-9.3-5.4z"/>
					</g>
					<g id="Layer">
						<path id="Layer" class="s1" d="m570.7 292.4c69.1-150 171.5-269 278.6-355.1 40 89.6 70.1 170.3 89.8 246.1-26.1-12.7-60.7-19-59.7-17.4 24.4 39.2 45 65.6 77.3 101.8 24.6 157.1-1.4 299.8-86.9 470.8-8.9-13.3-19.2-25.5-30-36.9-22.6-24-48.4-45.5-76.3-63-1.5-0.9-3.5 0-3.7 1.8-1.5 23.6 7.8 44.9 13.7 67.2 7.2 27 12.7 54.6 19.9 81.7 5.2 19.2 10.5 38.4 14.9 57.9-176.1 250.9-207.4 372.4-207.4 372.4 0 0 0-0.1 0-0.1-34.9-80.4-61.1-157.6-79.9-231.7 1.4-5.6 2.9-11.2 4.4-16.8 6-22.3 14.1-43.2 24-64 19.3-40.4 43.9-78.1 57.2-121.1 0.5-1.6-0.6-2.8-2-3.1-15.6-2.7-29.5 10.9-39.6 20.9-16.9 16.5-34.5 32.1-52.2 47.8q-8.3 7.5-16.5 15c-20.5-134.3-15.8-257 6.8-367.7 19.3-21.8 40-42.3 58.3-65.2 0.9-1.1 0.2-3.1-1.2-3.5-14.6-3.5-29.7 1.8-43 9.5 4.8-17.8 10.1-35.2 15.9-52.4 44.4-42.6 101.9-71.7 146-115.8 1.2-1.2 1-3.5-0.8-4-22.8-6.4-47-0.3-68.7 7.6-13.3 4.9-26.2 10.8-38.9 17.3z"/>
					</g>
					<g id="Layer">
						<path id="Layer" class="s2" d="m879.4 166c24.4 39.2 45 65.6 77.3 101.8 24.6 157.1-1.4 299.8-86.9 470.8-8.9-13.3-19.2-25.5-30-36.9-22.6-24-48.4-45.5-76.3-63-1.5-0.9-3.5 0-3.7 1.8-1.5 23.6 7.8 44.9 13.7 67.2 7.2 27 12.7 54.6 19.9 81.7 5.2 19.2 10.5 38.4 14.9 57.9-176.1 250.9-207.4 372.4-207.4 372.4q0 0 0-0.1c0.6-9.1 61.5-728.2 248.4-1282.3 40 89.6 70.1 170.3 89.8 246.1-26.1-12.7-60.7-19-59.7-17.4z"/>
					</g>
					<g id="Layer">
						<path id="Layer" class="s2" d="m532.7 702.5c1.1-10.8 2.2-21.7 3.3-32.5 1.2-11.9 20.1-11.8 18.6 0-1.5 12.5-4.9 24.3-10.4 35.6-2.6 5.4-12.1 3-11.5-3.1z"/>
					</g>
					<g id="Layer">
						<path id="Layer" class="s2" d="m524.6 650.5c0.8-9.2-0.2-18.2 1.5-27.4 1-5.1 7.1-7.9 11.7-6.6 5.3 1.4 7.7 6.6 6.7 11.7-1.6 8.3-5.8 15.8-8.2 23.9-1.8 6.2-12.3 5.3-11.7-1.6z"/>
					</g>
					<g id="Layer">
						<path id="Layer" class="s1" d="m2410.2 12c95.7-134.6 218.4-232.5 339.5-297.4 22.7 95.6 37.4 180.4 42.7 258.6-23.3-17.3-56.1-30-55.4-28.2 16.7 43 32 72.8 57 114.4-4.9 158.9-56.9 294.3-172.6 446.5-6.3-14.7-14.1-28.6-22.6-41.9-17.8-27.7-39.2-53.6-63.4-76-1.3-1.1-3.4-0.6-3.9 1.1-5.9 23-0.7 45.5 1 68.6 2.1 27.9 2.3 56 4.5 83.9 1.4 19.9 3.1 39.7 3.8 59.7-219.5 213.9-272.8 327.5-272.8 327.5 0 0 0 0 0-0.1-19.4-85.4-30.8-166.2-35.6-242.5 2.5-5.2 4.9-10.4 7.4-15.6 10.1-20.9 21.9-39.9 35.6-58.5 26.3-36.1 57.5-68.6 78.6-108.4 0.8-1.4-0.1-2.9-1.5-3.4-14.8-5.6-30.9 5.3-42.7 13.1-19.7 13.1-39.8 25.2-60.1 37.4q-9.6 5.8-19.1 11.6c4.8-135.7 32.2-255.4 74.9-360 23-17.8 47.2-34.2 69.3-53.3 1.1-0.9 0.8-3-0.5-3.6-13.7-6.2-29.5-3.8-44 1.3q12-24.9 25.3-48.5c51.6-33.7 113.5-51.6 165-86.8 1.3-0.9 1.6-3.2-0.1-4-21.2-10.5-46.1-9.1-68.9-5.3-14 2.3-27.8 5.7-41.4 9.8z"/>
					</g>
					<g id="Layer">
						<path id="Layer" class="s2" d="m2737-55c16.7 43 32 72.8 57 114.4-4.9 158.9-56.9 294.3-172.6 446.5-6.2-14.7-14.1-28.6-22.6-41.9-17.8-27.7-39.2-53.6-63.4-76-1.3-1.1-3.4-0.6-3.9 1.1-5.9 23-0.7 45.5 1 68.6 2.1 27.9 2.3 56 4.5 83.9 1.4 19.9 3.1 39.7 3.8 59.7-219.5 213.9-272.8 327.5-272.8 327.5 0 0 0 0 0-0.1 2.2-8.8 195.4-704.2 481.7-1214.1 22.7 95.6 37.4 180.4 42.7 258.6-23.3-17.3-56.1-30-55.4-28.2z"/>
					</g>
					<g id="Layer">
						<path id="Layer" class="s2" d="m2407.5 252c-0.1-6.7 2-14.7 4.1-21.1 1.6-4.9 6.5-8 11.6-6.6 4.6 1.3 8.2 6.8 6.5 11.5-2.6 7.2-6 15.1-10.7 21-3.8 4.9-11.5 0.6-11.5-4.8z"/>
					</g>
					<g id="Layer">
						<path id="Layer" class="s2" d="m2371.7 275.7c3.9-10.4 7.1-22.7 14-31.6 5.4-6.8 17.4 0.6 14.6 8.5-3.6 10.1-12.1 18.9-18.5 27.4-3.4 4.5-12.4 2.1-10.1-4.3z"/>
					</g>
					<g id="Layer">
						<path id="Layer" class="s1" d="m899-131c115.6 57.2 202.7 132.3 267.7 217.2-5-1.3-10.2-2.4-15.2-3.9-68.7-21-117.9-10-115.9-9.2 90.7 36.9 127.1 55 190.2 103 13.6 24.3 25.7 49.2 36.6 74.4-10.2-3.8-20.2-8.3-30.1-12.1-21.2-8.4-43.3-15.8-66.5-14-1.7 0.2-2.6 2.5-1.4 3.8 37.3 41.5 85.8 71.4 129.3 106.3 51.7 163.4 56.7 334.4 46.3 474.2-17.3-14.5-37.3-26.1-58.1-32.5-1.8-0.6-3.8 1.1-3 3 15.5 35.8 34.8 69.8 51.7 104.9 0.6 1.2 1.1 2.2 1.6 3.4-15.9 131.1-42 220.2-42.8 222.9v0.1c-91.7-205.3-221.1-369.2-313.6-497.2-0.7-62.1 9.4-124.4 8.2-186.8 0-1.4-2-2.5-3.2-1.8-19.5 11.2-33 30.2-44.3 49.2-8.9 15.1-16.6 31-23.7 47.1-7.2-11.7-13.9-23-19.8-33.9-75.5-139.8-137.8-324.3 6-618.1z"/>
					</g>
					<g id="Layer">
						<path id="Layer" class="s2" d="m899-131c115.6 57.2 202.7 132.3 267.7 217.2-5-1.3-10.2-2.4-15.2-3.9-68.7-21-117.9-10-115.9-9.2 90.7 36.9 127.1 55 190.2 103 13.6 24.3 25.7 49.2 36.6 74.4-10.2-3.8-20.2-8.3-30.1-12.1-21.2-8.4-43.3-15.8-66.5-14-1.7 0.2-2.6 2.5-1.4 3.8 37.3 41.5 85.8 71.4 129.3 106.3 51.7 163.4 56.7 334.4 46.3 474.2-17.3-14.5-37.3-26.1-58.1-32.5-1.8-0.6-3.8 1.1-3 3 15.5 35.8 34.8 69.8 51.7 104.9 0.6 1.2 1.1 2.2 1.6 3.4-15.9 131.1-42 220.2-42.8 222.9 0.1-5.4 8.9-393-390.4-1241.4z"/>
					</g>
					<g id="Layer">
						<path id="Layer" class="s2" d="m1112 670.8c6.4 4.3 10.3 11.6 13.6 18.5 3 6.5 6.5 14.1 5.5 21.4-0.6 5-6.2 8.3-10.3 4.3-4.8-4.6-7.5-11-11-16.5-3.7-5.8-8.6-11-11.2-17.4-2.9-7.4 7.2-14.6 13.4-10.3z"/>
					</g>
					<g id="Layer">
						<path id="Layer" class="s2" d="m1060.7 663.1c-0.3-4.8 5.2-9.1 9.9-7.5 6.9 2.4 10.7 9.7 13.7 16.1 2.9 6.1 5.9 13 5.2 19.9-0.4 4.4-5.2 6.7-8.7 3.6-4.7-4.1-7.6-9.9-11.1-15-3.7-5.3-8.7-10.4-9-17.1z"/>
					</g>
					<g id="Layer">
						<path id="Layer" class="s2" d="m1071.3 603.1c2.1 3.5 3.7 7.3 5.2 11.1 1.3 3.3 2.7 7.3 2.4 10.9-0.5 4.2-4.2 6.4-8.1 4.6-3.3-1.5-5.9-4.8-8.1-7.5-2.5-3.2-5-6.5-6.8-10-5.5-10.2 9.4-19 15.4-9.1z"/>
					</g>
					<g id="Layer">
						<path id="Layer" class="s2" d="m934.8 149.4c3.6-3.6 10.7-4.2 14.2 0 6.9 8.2 12.8 20.9 10.3 31.9-1.4 6.2-9.8 6.4-12.9 1.6-2.2-3.2-3.3-7-5.3-10.4-1.9-3.1-4-6-6.3-8.9-3.4-4.3-4.2-10 0-14.2z"/>
					</g>
				</g>
			</g>
		</g>
	</g>
</svg>